<svg aria-hidden="true" style="position: absolute; width: 0; height: 0; overflow: hidden;" version="1.1" xmlns="http://www.w3.org/2000/svg" xmlns:xlink="http://www.w3.org/1999/xlink">
<defs>
<symbol id="icon-logo" viewBox="0 0 34 32">
<path fill="#fff" style="fill: var(--color1, #fff)" d="M33.711 5.619l-1.136-1.657-0.955-0.827-0.009-0.677-0.453-0.324-0.568 1.209-0.859-0.557-0.297 0.302 0.334 0.67-4.93 4.701-7.765 3.783-2.329 0.516-0.548 0.281-1.447 1.87-0.601 2.024-0.141 1.119 0.312 0.668 0.033-0.244 0.555-2.019-0.53 4.077-0.601 1.837-1.109 5.593h1.007l-0.304-0.506 0.529-2.672 1.997-3.989-0.367 1.499 1.561 5.668h1.061l-0.444-0.565-0.745-2.221-0.315-3.335 1.144-2.635 0.685-0.668 3.174 0.005 0.561 0.56-1.026 7.641 0.041 1.218h1.010l-0.372-0.56 0.139-2.909 1.55-5.326 0.19 0.001 3.401 8.793h1.021l-0.519-0.53-0.925-2.5-1.45-6.309 0.384-3.237-0.188-0.903 0.177-0.635 6.598-7.491 1.005-0.196 2.538 0.924 0.18-0.716-0.255-0.751z"></path>
<path fill="none" stroke="#fff" style="stroke: var(--color1, #fff)" stroke-linejoin="miter" stroke-linecap="butt" stroke-miterlimit="4" stroke-width="0.5333" d="M31.733 16c0 8.689-7.044 15.733-15.733 15.733s-15.733-7.044-15.733-15.733c0-8.689 7.044-15.733 15.733-15.733s15.733 7.044 15.733 15.733z"></path>
</symbol>
<symbol id="icon-airplane" viewBox="0 0 32 32">
<path fill="none" stroke="#fff" style="stroke: var(--color1, #fff)" stroke-linejoin="miter" stroke-linecap="butt" stroke-miterlimit="4" stroke-width="0.3765" d="M31.812 16c0 8.733-7.079 15.812-15.812 15.812s-15.812-7.079-15.812-15.812c0-8.733 7.079-15.812 15.812-15.812s15.812 7.079 15.812 15.812z"></path>
<path fill="#fff" style="fill: var(--color1, #fff)" d="M15.49 7.169c-0.253-0.253-0.589-0.392-0.947-0.392-0.273 0-0.533 0.081-0.754 0.232-0.22-0.151-0.481-0.232-0.754-0.232-0.358 0-0.694 0.139-0.947 0.392s-0.392 0.589-0.392 0.947c0 0.358 0.139 0.694 0.392 0.947l1.508 1.508c0.053 0.053 0.123 0.080 0.193 0.080s0.14-0.027 0.193-0.080l1.508-1.508c0.522-0.522 0.522-1.372 0-1.894zM15.103 8.677l-1.315 1.315-1.315-1.315c-0.15-0.15-0.232-0.349-0.232-0.561s0.082-0.411 0.232-0.561c0.15-0.15 0.349-0.232 0.561-0.232s0.411 0.083 0.561 0.232c0.051 0.051 0.121 0.080 0.193 0.080s0.142-0.029 0.193-0.080c0.15-0.15 0.349-0.232 0.561-0.232s0.411 0.083 0.561 0.232c0.309 0.309 0.309 0.813 0 1.122z"></path>
<path fill="#fff" style="fill: var(--color1, #fff)" d="M18.012 10.133c-0.152-0.152-0.355-0.236-0.57-0.236-0.134 0-0.262 0.032-0.377 0.093-0.115-0.061-0.243-0.093-0.377-0.093-0.215 0-0.418 0.084-0.57 0.236s-0.236 0.355-0.236 0.57c0 0.215 0.084 0.418 0.236 0.57l0.754 0.754c0.051 0.051 0.121 0.080 0.193 0.080s0.142-0.029 0.193-0.080l0.754-0.754c0.314-0.314 0.314-0.826 0-1.14zM17.626 10.887l-0.561 0.561-0.561-0.561c-0.049-0.049-0.076-0.114-0.076-0.184s0.027-0.135 0.076-0.184c0.049-0.049 0.114-0.076 0.184-0.076s0.135 0.027 0.184 0.076c0.051 0.051 0.121 0.080 0.193 0.080h0c0.072-0 0.142-0.029 0.193-0.080 0.049-0.049 0.114-0.076 0.184-0.076s0.135 0.027 0.184 0.076c0.101 0.101 0.101 0.266 0 0.368z"></path>
<path fill="#fff" style="fill: var(--color1, #fff)" d="M22.436 11.174c-0.068 0-1.667 0.010-2.509 0.852l-1.693 1.693-8.087-2.021c-0.002-0.001-0.004-0.001-0.006-0.001-0.005-0.001-0.010-0.002-0.016-0.003-0.004-0.001-0.008-0.001-0.012-0.002s-0.009-0.001-0.014-0.001c-0.004-0-0.009-0.001-0.013-0.001s-0.009-0-0.013 0c-0.004 0-0.009 0-0.013 0.001s-0.009 0.001-0.014 0.001c-0.004 0.001-0.008 0.001-0.012 0.002-0.005 0.001-0.010 0.002-0.015 0.003-0.003 0.001-0.006 0.002-0.010 0.002-0.006 0.002-0.011 0.003-0.017 0.005-0.002 0.001-0.005 0.002-0.007 0.003-0.006 0.002-0.012 0.005-0.018 0.007-0.002 0.001-0.004 0.002-0.006 0.003-0.006 0.003-0.011 0.006-0.017 0.009-0.002 0.001-0.004 0.003-0.007 0.004-0.005 0.003-0.010 0.006-0.015 0.010-0.003 0.002-0.005 0.004-0.008 0.006-0.004 0.003-0.008 0.006-0.012 0.010s-0.007 0.006-0.010 0.009c-0.002 0.002-0.004 0.003-0.005 0.005l-0.772 0.772c-0.001 0.001-0.002 0.003-0.004 0.004-0.004 0.004-0.007 0.007-0.010 0.011s-0.006 0.007-0.009 0.011c-0.001 0.002-0.003 0.003-0.004 0.005s-0.002 0.004-0.004 0.005-0.006 0.009-0.009 0.013c-0.002 0.003-0.004 0.007-0.006 0.010-0.002 0.004-0.005 0.009-0.007 0.013s-0.004 0.008-0.005 0.011c-0.002 0.004-0.004 0.009-0.005 0.013s-0.003 0.008-0.004 0.013c-0.001 0.004-0.003 0.008-0.004 0.012s-0.002 0.009-0.003 0.014c-0.001 0.004-0.002 0.008-0.002 0.012s-0.001 0.009-0.002 0.014c-0 0.004-0.001 0.008-0.001 0.012s-0.001 0.009-0.001 0.014c-0 0.004-0 0.008 0 0.013s0 0.009 0.001 0.013c0 0.005 0.001 0.009 0.001 0.014s0.001 0.008 0.002 0.012c0.001 0.005 0.002 0.009 0.003 0.014s0.002 0.008 0.003 0.011c0.001 0.005 0.003 0.009 0.004 0.014s0.002 0.007 0.004 0.011c0.002 0.004 0.004 0.009 0.005 0.013s0.003 0.008 0.005 0.011c0.002 0.004 0.004 0.008 0.006 0.012s0.005 0.008 0.007 0.012c0.002 0.004 0.005 0.007 0.007 0.011s0.006 0.008 0.009 0.012c0.002 0.003 0.005 0.006 0.007 0.009s0.007 0.008 0.011 0.012c0.002 0.002 0.003 0.003 0.004 0.005s0.003 0.003 0.004 0.004 0.007 0.006 0.011 0.010c0.004 0.003 0.008 0.006 0.012 0.009 0.001 0.001 0.003 0.002 0.004 0.004l5.665 4.187-2.745 2.745-1.384-0.462c-0.003-0.001-0.005-0.001-0.008-0.002-0.005-0.002-0.010-0.003-0.015-0.004s-0.009-0.002-0.013-0.003c-0.004-0.001-0.008-0.002-0.012-0.002-0.005-0.001-0.010-0.001-0.015-0.002-0.004-0-0.007-0.001-0.011-0.001-0.005-0-0.011-0-0.016-0-0.003 0-0.007 0-0.010 0-0.005 0-0.011 0.001-0.016 0.001-0.004 0-0.007 0.001-0.011 0.001-0.005 0.001-0.010 0.002-0.015 0.003-0.004 0.001-0.007 0.002-0.011 0.002-0.005 0.001-0.010 0.003-0.015 0.005-0.003 0.001-0.007 0.002-0.010 0.003-0.005 0.002-0.011 0.004-0.016 0.007-0.003 0.001-0.006 0.002-0.008 0.004-0.006 0.003-0.012 0.006-0.018 0.009-0.002 0.001-0.003 0.002-0.005 0.003l-0.004 0.002c-0 0-0.001 0.001-0.001 0.001l-1.28 0.768c-0.001 0-0.001 0.001-0.002 0.001l-0 0c-0.001 0-0.001 0.001-0.002 0.001-0.007 0.004-0.014 0.009-0.020 0.014-0.002 0.002-0.004 0.003-0.006 0.005-0.005 0.004-0.010 0.008-0.014 0.012-0.003 0.003-0.006 0.006-0.009 0.009s-0.007 0.006-0.010 0.010c-0.004 0.005-0.008 0.009-0.011 0.014-0.002 0.002-0.004 0.004-0.005 0.007-0.005 0.007-0.009 0.013-0.014 0.020-0 0.001-0.001 0.001-0.001 0.002s-0 0-0 0c-0.009 0.016-0.017 0.032-0.023 0.049-0.003 0.007-0.005 0.015-0.007 0.022-0 0.001-0.001 0.002-0.001 0.003-0.002 0.007-0.003 0.014-0.004 0.020-0 0.002-0.001 0.004-0.001 0.006-0.001 0.006-0.001 0.012-0.002 0.017-0 0.003-0.001 0.006-0.001 0.009-0 0.004-0 0.009-0 0.013s-0 0.009 0 0.014c0 0.003 0.001 0.006 0.001 0.009 0.001 0.006 0.001 0.012 0.002 0.018 0 0.002 0.001 0.003 0.001 0.005 0.001 0.007 0.002 0.014 0.004 0.021 0 0 0 0.001 0 0.001 0.003 0.013 0.008 0.025 0.013 0.038 0.002 0.004 0.003 0.007 0.005 0.011 0 0.001 0.001 0.002 0.001 0.003 0.004 0.007 0.007 0.015 0.012 0.022 0 0 0 0 0 0s0.001 0.001 0.001 0.001c0.005 0.009 0.011 0.017 0.018 0.025 0.002 0.002 0.004 0.005 0.006 0.007 0.005 0.006 0.011 0.012 0.017 0.018 0.002 0.002 0.004 0.004 0.006 0.006 0.007 0.007 0.015 0.014 0.024 0.020 0.003 0.002 0.006 0.004 0.008 0.006 0.005 0.003 0.009 0.007 0.014 0.010l2.274 1.365-0.268 0.268c-0.107 0.107-0.107 0.279 0 0.386 0.053 0.053 0.123 0.080 0.193 0.080s0.14-0.027 0.193-0.080l0.268-0.268 1.363 2.272c0 0.001 0.001 0.001 0.001 0.002l0 0c0 0 0 0 0.001 0.001 0.005 0.009 0.012 0.018 0.018 0.026 0.002 0.002 0.004 0.004 0.005 0.007 0.005 0.006 0.011 0.013 0.017 0.019 0.002 0.002 0.004 0.004 0.006 0.006 0.008 0.007 0.015 0.014 0.024 0.020 0.002 0.002 0.005 0.003 0.008 0.005 0.005 0.003 0.010 0.007 0.015 0.010 0.001 0.001 0.002 0.001 0.003 0.002 0.007 0.004 0.014 0.007 0.020 0.010 0.004 0.002 0.008 0.004 0.013 0.006 0.006 0.003 0.012 0.004 0.019 0.006s0.010 0.004 0.016 0.005c0.005 0.001 0.011 0.002 0.016 0.003s0.012 0.003 0.018 0.004c0.007 0.001 0.015 0.001 0.022 0.001 0.004 0 0.008 0.001 0.012 0.001 0 0 0-0 0-0s0 0 0 0c0.004 0 0.008-0.001 0.012-0.001 0.008-0 0.015-0.001 0.022-0.001 0.006-0.001 0.012-0.002 0.019-0.004s0.011-0.002 0.016-0.003c0.005-0.001 0.011-0.003 0.016-0.005s0.012-0.004 0.018-0.006c0.004-0.002 0.009-0.004 0.013-0.006 0.007-0.003 0.014-0.006 0.020-0.010 0.001-0.001 0.002-0.001 0.004-0.002 0.005-0.003 0.010-0.007 0.016-0.010 0.002-0.002 0.005-0.003 0.007-0.005 0.009-0.006 0.017-0.013 0.024-0.020 0.002-0.002 0.004-0.004 0.006-0.006 0.006-0.006 0.012-0.012 0.017-0.019 0.002-0.002 0.004-0.004 0.005-0.006 0.007-0.008 0.013-0.017 0.018-0.026 0-0 0-0.001 0.001-0.001l0-0.001c0-0.001 0.001-0.001 0.001-0.002l0.771-1.285c0.002-0.003 0.003-0.006 0.005-0.009 0.002-0.004 0.005-0.008 0.007-0.013s0.004-0.009 0.006-0.013c0.002-0.004 0.003-0.008 0.005-0.011s0.003-0.009 0.005-0.014c0.001-0.004 0.002-0.007 0.003-0.011s0.002-0.010 0.003-0.014c0.001-0.004 0.002-0.008 0.002-0.012s0.001-0.009 0.002-0.014c0.001-0.004 0.001-0.009 0.001-0.013s0-0.008 0-0.013c0-0.005 0-0.009-0-0.014s-0.001-0.008-0.001-0.012c-0-0.005-0.001-0.010-0.001-0.015s-0.001-0.008-0.002-0.012c-0.001-0.005-0.002-0.009-0.003-0.014s-0.003-0.009-0.004-0.014c-0.001-0.003-0.002-0.006-0.003-0.009l-0.462-1.384 7.859-7.859c0-0 0.001-0.001 0.001-0.001 0.842-0.842 0.852-2.442 0.852-2.509 0-0.151-0.122-0.273-0.273-0.273zM9.725 12.703l0.439-0.439 7.619 1.905-2.582 2.582-5.476-4.047zM21.471 13.569c-0 0-0.001 0.001-0.001 0.001l-7.98 7.98c-0.001 0.001-0.002 0.002-0.003 0.003-0.004 0.004-0.007 0.008-0.011 0.012-0.003 0.003-0.005 0.006-0.008 0.009s-0.005 0.007-0.008 0.011c-0.003 0.004-0.006 0.008-0.008 0.012-0.002 0.003-0.003 0.006-0.005 0.009-0.003 0.005-0.006 0.010-0.008 0.015-0.001 0.003-0.002 0.005-0.004 0.008-0.003 0.005-0.005 0.011-0.007 0.016-0.001 0.003-0.002 0.006-0.003 0.009-0.002 0.005-0.004 0.011-0.005 0.016-0.001 0.004-0.002 0.008-0.003 0.012s-0.002 0.009-0.003 0.014c-0.001 0.005-0.001 0.010-0.002 0.015-0.001 0.004-0.001 0.007-0.001 0.011-0 0.005-0.001 0.011-0.001 0.016-0 0.003-0 0.007-0 0.010 0 0.005 0 0.010 0.001 0.016 0 0.004 0 0.008 0.001 0.011s0.001 0.009 0.002 0.013c0.001 0.005 0.001 0.009 0.002 0.014s0.002 0.007 0.003 0.011 0.003 0.011 0.004 0.016c0 0.001 0.001 0.002 0.001 0.003l0.475 1.425-0.473 0.789-1.201-2.001 1.136-1.136c0.107-0.107 0.107-0.28 0-0.386s-0.28-0.107-0.386 0l-1.136 1.136-2.001-1.201 0.789-0.474 1.425 0.475c0.001 0 0.002 0 0.003 0.001 0.012 0.004 0.024 0.007 0.037 0.009 0.003 0.001 0.006 0.001 0.009 0.001 0.011 0.002 0.023 0.003 0.034 0.003 0.001 0 0.002 0 0.004 0s0.003-0 0.004-0c0.011-0 0.022-0.001 0.032-0.003 0.003-0 0.007-0.001 0.010-0.001 0.012-0.002 0.023-0.005 0.034-0.008 0.002-0.001 0.005-0.002 0.007-0.002 0.010-0.003 0.020-0.008 0.030-0.012 0.002-0.001 0.004-0.002 0.006-0.003 0.011-0.005 0.021-0.012 0.031-0.019 0.003-0.002 0.005-0.004 0.008-0.006 0.008-0.006 0.015-0.012 0.023-0.019 0.002-0.002 0.005-0.004 0.007-0.006 0-0 0.001-0.001 0.001-0.001l7.98-7.98c0.494-0.494 1.379-0.635 1.834-0.676-0.040 0.455-0.181 1.338-0.675 1.833z"></path>
<path fill="#fff" style="fill: var(--color1, #fff)" d="M22.192 23.783c-0-0.004-0.001-0.009-0.001-0.013s-0.001-0.008-0.002-0.012c-0.001-0.005-0.002-0.010-0.003-0.015-0-0.002-0.001-0.004-0.001-0.006l-1.75-7.001c-0.037-0.146-0.185-0.235-0.331-0.199s-0.235 0.185-0.199 0.331l1.713 6.851-0.439 0.439-3.531-4.777c-0.090-0.121-0.261-0.147-0.382-0.057s-0.147 0.261-0.057 0.382l3.719 5.032c0.001 0.001 0.002 0.002 0.003 0.004 0.004 0.006 0.009 0.011 0.013 0.016 0.003 0.003 0.005 0.006 0.008 0.008 0.001 0.001 0.002 0.002 0.003 0.003 0.004 0.004 0.008 0.007 0.012 0.011 0.003 0.002 0.005 0.005 0.008 0.007 0.008 0.006 0.015 0.012 0.024 0.017 0.002 0.001 0.005 0.003 0.007 0.004 0.006 0.004 0.013 0.008 0.019 0.011 0.003 0.001 0.006 0.003 0.009 0.004 0.006 0.003 0.012 0.005 0.018 0.008 0.003 0.001 0.006 0.002 0.010 0.003 0.006 0.002 0.013 0.004 0.019 0.006 0.003 0.001 0.006 0.002 0.010 0.002 0.007 0.001 0.014 0.003 0.020 0.004 0.003 0 0.006 0.001 0.009 0.001 0.009 0.001 0.019 0.002 0.028 0.002 0 0 0.001 0 0.001 0s0.001-0 0.001-0c0.012-0 0.024-0.001 0.036-0.003 0.003-0 0.006-0.001 0.009-0.001 0.012-0.002 0.024-0.005 0.036-0.008 0.002-0.001 0.005-0.002 0.007-0.002 0.011-0.004 0.023-0.009 0.034-0.014 0.001-0.001 0.002-0.001 0.003-0.001 0.012-0.006 0.023-0.013 0.034-0.021 0.001-0.001 0.002-0.001 0.003-0.002s0.003-0.002 0.004-0.004 0.008-0.006 0.011-0.009c0.004-0.003 0.007-0.006 0.011-0.010 0.001-0.001 0.003-0.003 0.004-0.004l0.772-0.772c0.002-0.002 0.003-0.003 0.004-0.005 0.003-0.004 0.007-0.007 0.010-0.011s0.006-0.007 0.008-0.010c0.003-0.003 0.005-0.007 0.007-0.010s0.006-0.008 0.009-0.013c0.002-0.003 0.004-0.006 0.005-0.009 0.003-0.005 0.005-0.009 0.008-0.014 0.001-0.003 0.003-0.006 0.004-0.009 0.002-0.005 0.004-0.010 0.006-0.015 0.001-0.003 0.003-0.007 0.004-0.011 0.002-0.005 0.003-0.009 0.004-0.014s0.002-0.008 0.003-0.013c0.001-0.004 0.002-0.008 0.003-0.012s0.001-0.010 0.002-0.014c0-0.004 0.001-0.008 0.001-0.011 0-0.005 0.001-0.010 0.001-0.015 0-0.004 0-0.008 0-0.012s-0-0.009-0.001-0.014z"></path>
</symbol>
<symbol id="icon-beach" viewBox="0 0 32 32">
<path fill="none" stroke="#fff" style="stroke: var(--color1, #fff)" stroke-linejoin="miter" stroke-linecap="butt" stroke-miterlimit="4" stroke-width="0.3765" d="M31.812 16c0 8.733-7.079 15.812-15.812 15.812s-15.812-7.079-15.812-15.812c0-8.733 7.079-15.812 15.812-15.812s15.812 7.079 15.812 15.812z"></path>
<path fill="#fff" style="fill: var(--color1, #fff)" d="M17.536 18.515c0 1.87 1.516 3.386 3.386 3.386s3.386-1.516 3.386-3.386c0-1.87-1.516-3.386-3.386-3.386-1.869 0.002-3.384 1.517-3.386 3.386zM20.922 15.806c1.496 0 2.709 1.213 2.709 2.709s-1.213 2.709-2.709 2.709c-1.496 0-2.709-1.213-2.709-2.709 0.002-1.495 1.213-2.707 2.709-2.709z"></path>
<path fill="#fff" style="fill: var(--color1, #fff)" d="M18.987 25.287h3.87v0.677h-3.87v-0.677z"></path>
<path fill="#fff" style="fill: var(--color1, #fff)" d="M17.536 23.932h6.772v0.677h-6.772v-0.677z"></path>
<path fill="#fff" style="fill: var(--color1, #fff)" d="M10.087 23.932h0.677v0.677h-0.677v-0.677z"></path>
<path fill="#fff" style="fill: var(--color1, #fff)" d="M8.056 24.61h0.677v0.677h-0.677v-0.677z"></path>
<path fill="#fff" style="fill: var(--color1, #fff)" d="M10.121 22.027c1.768-3.079 2.877-6.492 3.258-10.022l3.149 3.13c0.063 0.063 0.148 0.098 0.237 0.098 0.018 0 0.037-0.001 0.055-0.004 0.107-0.017 0.2-0.085 0.248-0.183 0.638-1.274 0.388-2.814-0.62-3.82l-0.277-0.277h2.382c0.187 0 0.339-0.151 0.339-0.338 0-0.037-0.006-0.073-0.017-0.108-0.45-1.352-1.715-2.264-3.14-2.263h-0.44l1.691-1.701c0.132-0.132 0.131-0.347-0.001-0.479-0.026-0.026-0.055-0.047-0.088-0.063-1.275-0.639-2.815-0.389-3.822 0.62l-0.323 0.323c-0.105 0.106-0.203 0.219-0.294 0.339-0.089-0.119-0.186-0.232-0.291-0.339l-0.323-0.323c-1.006-1.008-2.546-1.258-3.82-0.62-0.167 0.084-0.235 0.287-0.152 0.454 0.016 0.032 0.037 0.062 0.063 0.088l1.693 1.701h-0.444c-1.425-0.001-2.691 0.911-3.14 2.263-0.059 0.177 0.036 0.369 0.214 0.428 0.035 0.012 0.071 0.017 0.108 0.017h2.379l-0.277 0.277c-1.009 1.007-1.259 2.546-0.62 3.82 0.049 0.097 0.141 0.165 0.248 0.183 0.018 0.003 0.036 0.005 0.055 0.004 0.089 0 0.175-0.035 0.239-0.098l2.932-2.915c-0.363 3.245-1.585 6.334-3.54 8.948-0.455-0.12-0.917-0.214-1.382-0.282l-0.212-0.021-0.068 0.674 0.197 0.019c0.339 0.049 0.675 0.117 1.010 0.194-0.068 0.085-0.136 0.171-0.206 0.255l0.519 0.434c2.602-3.094 4.153-6.934 4.43-10.967l0.39-0.387 0.292 0.29c-0.356 4.313-1.836 8.458-4.294 12.020l0.555 0.388c0.266-0.38 0.52-0.774 0.766-1.176 1.584 0.758 2.982 1.853 4.097 3.21l0.524-0.429c-0.659-0.801-1.414-1.519-2.248-2.135h14.191v-0.677h-15.194c-0.332-0.2-0.675-0.382-1.024-0.551zM16.64 14.292l-3.577-3.557c0.915-0.273 1.906-0.025 2.585 0.647l0.323 0.323c0.677 0.676 0.934 1.667 0.669 2.587zM18.035 10.272h-2.804c-0.653-0.311-1.39-0.399-2.097-0.25 0.493-0.693 1.29-1.104 2.14-1.104h0.457c0.957-0.002 1.839 0.517 2.303 1.354zM13.227 7.42l0.323-0.323c0.677-0.678 1.668-0.934 2.588-0.669l-2.007 2.019c-0.651 0.24-1.211 0.679-1.598 1.255-0.158-0.828 0.102-1.681 0.695-2.281h-0.001zM11.362 7.097l0.323 0.323c0.151 0.154 0.282 0.326 0.389 0.513-0.153 0.357-0.241 0.738-0.259 1.126-0.304-0.266-0.654-0.473-1.033-0.612l-2.008-2.019c0.92-0.264 1.911-0.008 2.587 0.669h-0.001zM9.18 8.918h0.457c0.851-0.001 1.649 0.411 2.143 1.104-0.707-0.148-1.444-0.060-2.096 0.251h-2.805c0.464-0.837 1.345-1.355 2.302-1.354h-0.001zM8.274 14.292c-0.264-0.92-0.008-1.911 0.669-2.587l0.323-0.323c0.487-0.486 1.148-0.758 1.836-0.756 0.254 0 0.507 0.036 0.75 0.108l-3.579 3.558z"></path>
</symbol>
<symbol id="icon-bottom-arrow" viewBox="0 0 32 32">
<path fill="none" stroke="#fff" style="stroke: var(--color1, #fff)" stroke-linejoin="miter" stroke-linecap="butt" stroke-miterlimit="10" stroke-width="0.7805" d="M16 8.587v13.737"></path>
<path fill="none" stroke="#fff" style="stroke: var(--color1, #fff)" stroke-linejoin="miter" stroke-linecap="butt" stroke-miterlimit="10" stroke-width="0.7805" d="M10.927 17.641l5.074 4.995 5.073-4.995"></path>
<path fill="none" stroke="#fff" style="stroke: var(--color1, #fff)" stroke-linejoin="miter" stroke-linecap="butt" stroke-miterlimit="10" stroke-width="0.7805" d="M0.39 16c0-8.621 6.989-15.61 15.61-15.61s15.61 6.989 15.61 15.61c0 8.621-6.989 15.61-15.61 15.61s-15.61-6.989-15.61-15.61z"></path>
</symbol>
<symbol id="icon-car" viewBox="0 0 32 32">
<path fill="none" stroke="#fff" style="stroke: var(--color1, #fff)" stroke-linejoin="miter" stroke-linecap="butt" stroke-miterlimit="4" stroke-width="0.3765" d="M31.812 16c0 8.733-7.079 15.812-15.812 15.812s-15.812-7.079-15.812-15.812c0-8.733 7.079-15.812 15.812-15.812s15.812 7.079 15.812 15.812z"></path>
<path fill="#fff" style="fill: var(--color1, #fff)" d="M23.972 21.208h-1.641c-0.065 0-0.127-0.026-0.173-0.072s-0.072-0.108-0.072-0.173c0-0.065 0.026-0.127 0.072-0.173s0.108-0.072 0.173-0.072h1.641c0.043-0 0.085-0.017 0.116-0.048s0.048-0.072 0.048-0.116v-0.772c-0.001-0.529-0.211-1.036-0.585-1.41s-0.881-0.584-1.41-0.585h-14.122v2.483c0 0.118 0.047 0.232 0.131 0.316s0.197 0.131 0.316 0.131h1.038c0.065 0 0.127 0.026 0.173 0.072s0.072 0.108 0.072 0.173c0 0.065-0.026 0.127-0.072 0.173s-0.108 0.072-0.173 0.072h-1.038c-0.248-0-0.486-0.099-0.661-0.274s-0.274-0.413-0.274-0.661v-2.728c0-0.065 0.026-0.127 0.072-0.173s0.108-0.072 0.173-0.072h14.366c0.658 0.001 1.29 0.263 1.755 0.728s0.727 1.097 0.728 1.755v0.772c-0 0.173-0.069 0.339-0.191 0.461s-0.288 0.191-0.461 0.191z"></path>
<path fill="#fff" style="fill: var(--color1, #fff)" d="M19.332 21.208h-6.757c-0.065 0-0.127-0.026-0.173-0.072s-0.072-0.108-0.072-0.173c0-0.065 0.026-0.127 0.072-0.173s0.108-0.072 0.173-0.072h6.757c0.065 0 0.127 0.026 0.173 0.072s0.072 0.108 0.072 0.173c0 0.065-0.026 0.127-0.072 0.173s-0.108 0.072-0.173 0.072z"></path>
<path fill="#fff" style="fill: var(--color1, #fff)" d="M7.774 17.791c-0.018-0-0.036-0.002-0.053-0.006-0.031-0.007-0.061-0.020-0.087-0.038s-0.049-0.042-0.066-0.069-0.029-0.057-0.035-0.089c-0.006-0.032-0.005-0.064 0.002-0.095 0.312-1.215 1.034-2.284 2.043-3.028 0.322-0.222 0.703-0.34 1.094-0.338h6.167c0.332 0 0.661 0.069 0.965 0.203s0.578 0.328 0.803 0.572l2.288 2.479c0.023 0.023 0.042 0.051 0.054 0.081s0.018 0.063 0.018 0.096c-0.001 0.033-0.008 0.065-0.021 0.095s-0.033 0.057-0.057 0.079c-0.024 0.022-0.053 0.040-0.084 0.051s-0.064 0.016-0.097 0.014c-0.033-0.002-0.065-0.011-0.094-0.025s-0.056-0.035-0.077-0.060l-2.287-2.478c-0.18-0.194-0.398-0.349-0.64-0.456s-0.504-0.161-0.769-0.162h-6.168c-0.292-0.001-0.577 0.087-0.817 0.253-1.444 0.997-1.84 2.713-1.843 2.731-0.012 0.054-0.042 0.103-0.086 0.138s-0.097 0.054-0.153 0.054z"></path>
<path fill="#fff" style="fill: var(--color1, #fff)" d="M15.344 17.791c-0.058-0-0.115-0.021-0.159-0.059s-0.073-0.090-0.082-0.148l-0.488-3.175c-0.006-0.032-0.006-0.065 0.001-0.098s0.020-0.062 0.039-0.089c0.019-0.027 0.043-0.049 0.071-0.067s0.059-0.029 0.092-0.034c0.032-0.005 0.066-0.003 0.097 0.005s0.062 0.023 0.088 0.043c0.026 0.020 0.048 0.045 0.064 0.074s0.026 0.060 0.030 0.093l0.488 3.175c0.005 0.035 0.003 0.070-0.007 0.104s-0.027 0.065-0.050 0.092-0.051 0.048-0.083 0.063c-0.032 0.015-0.067 0.022-0.102 0.022z"></path>
<path fill="#fff" style="fill: var(--color1, #fff)" d="M10.704 17.791c-0.024 0-0.049-0.004-0.072-0.011-0.062-0.019-0.114-0.062-0.144-0.119s-0.037-0.124-0.018-0.186l0.977-3.175c0.009-0.031 0.025-0.059 0.045-0.084s0.046-0.045 0.074-0.060c0.028-0.015 0.059-0.024 0.091-0.027s0.064 0 0.095 0.010c0.031 0.009 0.059 0.025 0.084 0.045s0.045 0.046 0.060 0.074c0.015 0.028 0.024 0.059 0.027 0.091s-0 0.064-0.010 0.095l-0.977 3.175c-0.015 0.050-0.046 0.094-0.088 0.125s-0.093 0.048-0.145 0.048z"></path>
<path fill="#fff" style="fill: var(--color1, #fff)" d="M20.833 22.781c-0.345 0-0.683-0.102-0.97-0.294s-0.511-0.464-0.643-0.783c-0.132-0.319-0.167-0.67-0.099-1.008s0.234-0.65 0.478-0.894c0.244-0.244 0.555-0.41 0.894-0.478s0.689-0.033 1.008 0.099c0.319 0.132 0.591 0.356 0.783 0.643s0.294 0.624 0.294 0.97c-0.001 0.463-0.185 0.906-0.512 1.233s-0.771 0.511-1.233 0.512zM20.833 19.779c-0.249-0-0.492 0.074-0.698 0.212s-0.368 0.334-0.463 0.564c-0.095 0.23-0.12 0.482-0.072 0.726s0.168 0.468 0.344 0.644c0.176 0.176 0.4 0.296 0.644 0.344s0.497 0.024 0.726-0.072c0.23-0.095 0.426-0.256 0.564-0.463s0.212-0.45 0.212-0.698c-0-0.333-0.133-0.653-0.368-0.888s-0.555-0.368-0.888-0.369v0z"></path>
<path fill="#fff" style="fill: var(--color1, #fff)" d="M20.833 21.856c-0.162 0-0.321-0.048-0.456-0.138s-0.24-0.218-0.302-0.368c-0.062-0.15-0.078-0.315-0.047-0.474s0.11-0.305 0.224-0.42c0.115-0.115 0.261-0.193 0.42-0.225s0.324-0.015 0.474 0.047 0.278 0.167 0.368 0.302c0.090 0.135 0.138 0.294 0.138 0.456-0 0.218-0.087 0.426-0.24 0.58s-0.362 0.24-0.58 0.241zM20.833 20.703c-0.066-0-0.13 0.019-0.185 0.056s-0.097 0.088-0.122 0.149c-0.025 0.061-0.032 0.127-0.019 0.192s0.044 0.124 0.091 0.17c0.046 0.046 0.106 0.078 0.17 0.091s0.131 0.006 0.192-0.019c0.061-0.025 0.113-0.068 0.149-0.122s0.056-0.119 0.056-0.185c-0-0.088-0.035-0.172-0.097-0.235s-0.147-0.097-0.235-0.097z"></path>
<path fill="#fff" style="fill: var(--color1, #fff)" d="M11.039 21.856c-0.162 0-0.321-0.048-0.456-0.138s-0.24-0.218-0.302-0.368c-0.062-0.15-0.078-0.315-0.047-0.474s0.11-0.305 0.225-0.42 0.261-0.193 0.42-0.225c0.159-0.032 0.324-0.015 0.474 0.047s0.278 0.167 0.368 0.302c0.090 0.135 0.138 0.294 0.138 0.456-0 0.218-0.087 0.426-0.241 0.58s-0.362 0.24-0.58 0.241zM11.039 20.703c-0.066 0-0.13 0.020-0.185 0.056s-0.097 0.088-0.122 0.149c-0.025 0.061-0.032 0.128-0.019 0.192s0.044 0.124 0.091 0.17c0.046 0.046 0.106 0.078 0.17 0.091s0.131 0.006 0.192-0.019 0.113-0.068 0.149-0.122c0.036-0.055 0.056-0.119 0.056-0.185-0-0.088-0.035-0.172-0.097-0.235s-0.147-0.097-0.235-0.097z"></path>
<path fill="#fff" style="fill: var(--color1, #fff)" d="M11.039 22.817c-0.353 0-0.697-0.105-0.99-0.3s-0.522-0.474-0.657-0.8c-0.135-0.326-0.17-0.684-0.101-1.030s0.239-0.663 0.488-0.913c0.249-0.249 0.567-0.419 0.913-0.488s0.704-0.033 1.030 0.101c0.326 0.135 0.604 0.363 0.8 0.657s0.3 0.638 0.3 0.99c-0 0.473-0.188 0.926-0.522 1.26s-0.787 0.522-1.26 0.522zM11.039 19.742c-0.256 0-0.506 0.076-0.719 0.218s-0.379 0.344-0.477 0.581-0.124 0.497-0.074 0.748c0.050 0.251 0.173 0.482 0.354 0.663s0.412 0.304 0.663 0.354c0.251 0.050 0.511 0.024 0.748-0.074s0.439-0.264 0.581-0.477c0.142-0.213 0.218-0.463 0.218-0.719 0-0.17-0.033-0.338-0.098-0.495s-0.16-0.3-0.281-0.42c-0.12-0.12-0.263-0.216-0.42-0.281s-0.325-0.099-0.495-0.099z"></path>
<path fill="#fff" style="fill: var(--color1, #fff)" d="M17.298 19.012h-0.488c-0.065 0-0.127-0.026-0.173-0.072s-0.072-0.108-0.072-0.173c0-0.065 0.026-0.127 0.072-0.173s0.108-0.072 0.173-0.072h0.488c0.065 0 0.127 0.026 0.173 0.072s0.072 0.108 0.072 0.173c0 0.065-0.026 0.127-0.072 0.173s-0.108 0.072-0.173 0.072z"></path>
<path fill="#fff" style="fill: var(--color1, #fff)" d="M14.489 19.012h-0.488c-0.065 0-0.127-0.026-0.173-0.072s-0.072-0.108-0.072-0.173c0-0.065 0.026-0.127 0.072-0.173s0.108-0.072 0.173-0.072h0.488c0.065 0 0.127 0.026 0.173 0.072s0.072 0.108 0.072 0.173c0 0.065-0.026 0.127-0.072 0.173s-0.108 0.072-0.173 0.072z"></path>
<path fill="#fff" style="fill: var(--color1, #fff)" d="M15.263 14.616h-3.022c-0.065 0-0.127-0.026-0.173-0.072s-0.072-0.108-0.072-0.173v-0.977c0-0.065 0.026-0.127 0.072-0.173s0.108-0.072 0.173-0.072h3.022c0.065 0 0.127 0.026 0.173 0.072s0.072 0.108 0.072 0.173v0.977c0 0.065-0.026 0.127-0.072 0.173s-0.108 0.072-0.173 0.072zM12.485 14.128h2.534v-0.488h-2.534v0.488z"></path>
<path fill="#fff" style="fill: var(--color1, #fff)" d="M17.455 13.64h-7.407c-0.065 0-0.127-0.026-0.173-0.072s-0.072-0.108-0.072-0.173 0.026-0.127 0.072-0.173c0.046-0.046 0.108-0.072 0.173-0.072h7.407c0.065 0 0.127 0.026 0.173 0.072s0.072 0.108 0.072 0.173-0.026 0.127-0.072 0.173c-0.046 0.046-0.108 0.072-0.173 0.072z"></path>
<path fill="#fff" style="fill: var(--color1, #fff)" d="M16.858 13.639h-4.425c-0.065 0-0.127-0.026-0.173-0.072s-0.072-0.108-0.072-0.173 0.026-0.127 0.072-0.173c0.046-0.046 0.108-0.072 0.173-0.072h4.181v-3.106c0-0.038-0.015-0.075-0.042-0.102s-0.063-0.042-0.102-0.042h-3.65c-0.038 0-0.075 0.015-0.101 0.042s-0.042 0.063-0.042 0.101v0.894c0 0.065-0.026 0.127-0.072 0.173s-0.108 0.072-0.173 0.072c-0.065 0-0.127-0.026-0.173-0.072s-0.072-0.108-0.072-0.173v-0.894c0-0.168 0.067-0.328 0.185-0.447s0.279-0.185 0.447-0.185h3.649c0.168 0 0.328 0.067 0.447 0.185s0.185 0.279 0.186 0.447v3.351c0 0.065-0.026 0.127-0.072 0.173s-0.108 0.072-0.173 0.072z"></path>
<path fill="#fff" style="fill: var(--color1, #fff)" d="M14.645 13.64h-3.845c-0.065 0-0.127-0.026-0.173-0.072s-0.072-0.108-0.072-0.173v-2.071c0-0.168 0.067-0.328 0.185-0.447s0.279-0.185 0.447-0.186h3.069c0.168 0 0.328 0.067 0.447 0.185s0.185 0.279 0.185 0.447v2.071c0 0.065-0.026 0.127-0.072 0.173s-0.108 0.072-0.173 0.072zM11.045 13.151h3.357v-1.826c-0-0.038-0.015-0.075-0.042-0.102s-0.064-0.042-0.102-0.042h-3.069c-0.038 0-0.075 0.015-0.102 0.042s-0.042 0.064-0.042 0.102v1.826z"></path>
</symbol>
<symbol id="icon-city" viewBox="0 0 32 32">
<path fill="none" stroke="#fff" style="stroke: var(--color1, #fff)" stroke-linejoin="miter" stroke-linecap="butt" stroke-miterlimit="4" stroke-width="0.3765" d="M31.812 16c0 8.733-7.079 15.812-15.812 15.812s-15.812-7.079-15.812-15.812c0-8.733 7.079-15.812 15.812-15.812s15.812 7.079 15.812 15.812z"></path>
<path fill="#fff" style="fill: var(--color1, #fff)" d="M23.341 23.906v-10.729c0-0.13-0.088-0.243-0.214-0.274l-5.433-1.358v-1.473c0-0.128-0.086-0.24-0.21-0.273l-8.471-2.259c-0.085-0.023-0.175-0.005-0.245 0.049s-0.11 0.136-0.11 0.224v16.094h-1.129v0.565h16.941v-0.565h-1.129zM9.224 8.179l7.906 2.108v13.619h-1.412v-3.106c0-0.156-0.126-0.282-0.282-0.282h-4.518c-0.156 0-0.282 0.126-0.282 0.282v3.106h-1.412v-15.727zM11.2 21.082h1.694v2.824h-1.694v-2.824zM13.459 23.906v-2.824h1.694v2.824h-1.694zM19.388 23.906v-2.259h1.694v2.259h-1.694zM21.647 23.906v-2.541c0-0.156-0.126-0.282-0.282-0.282h-2.259c-0.156 0-0.282 0.126-0.282 0.282v2.541h-1.129v-11.78l5.082 1.271v10.509h-1.129z"></path>
<path fill="#fff" style="fill: var(--color1, #fff)" d="M11.2 19.389h1.129c0.156 0 0.282-0.126 0.282-0.282v-1.129c0-0.156-0.126-0.282-0.282-0.282h-1.129c-0.156 0-0.282 0.126-0.282 0.282v1.129c0 0.156 0.126 0.282 0.282 0.282zM11.482 18.259h0.565v0.565h-0.565v-0.565z"></path>
<path fill="#fff" style="fill: var(--color1, #fff)" d="M14.024 19.389h1.129c0.156 0 0.282-0.126 0.282-0.282v-1.129c0-0.156-0.126-0.282-0.282-0.282h-1.129c-0.156 0-0.282 0.126-0.282 0.282v1.129c0 0.156 0.126 0.282 0.282 0.282zM14.306 18.259h0.565v0.565h-0.565v-0.565z"></path>
<path fill="#fff" style="fill: var(--color1, #fff)" d="M19.671 18.259h-1.129c-0.156 0-0.282 0.126-0.282 0.282v1.129c0 0.156 0.126 0.282 0.282 0.282h1.129c0.156 0 0.282-0.126 0.282-0.282v-1.129c0-0.156-0.126-0.282-0.282-0.282zM19.388 19.389h-0.565v-0.565h0.565v0.565z"></path>
<path fill="#fff" style="fill: var(--color1, #fff)" d="M21.929 18.259h-1.129c-0.156 0-0.282 0.126-0.282 0.282v1.129c0 0.156 0.126 0.282 0.282 0.282h1.129c0.156 0 0.282-0.126 0.282-0.282v-1.129c0-0.156-0.126-0.282-0.282-0.282zM21.647 19.389h-0.565v-0.565h0.565v0.565z"></path>
<path fill="#fff" style="fill: var(--color1, #fff)" d="M19.671 16h-1.129c-0.156 0-0.282 0.126-0.282 0.282v1.129c0 0.156 0.126 0.282 0.282 0.282h1.129c0.156 0 0.282-0.126 0.282-0.282v-1.129c0-0.156-0.126-0.282-0.282-0.282zM19.388 17.13h-0.565v-0.565h0.565v0.565z"></path>
<path fill="#fff" style="fill: var(--color1, #fff)" d="M21.929 16h-1.129c-0.156 0-0.282 0.126-0.282 0.282v1.129c0 0.156 0.126 0.282 0.282 0.282h1.129c0.156 0 0.282-0.126 0.282-0.282v-1.129c0-0.156-0.126-0.282-0.282-0.282zM21.647 17.13h-0.565v-0.565h0.565v0.565z"></path>
<path fill="#fff" style="fill: var(--color1, #fff)" d="M19.671 13.742h-1.129c-0.156 0-0.282 0.126-0.282 0.282v1.129c0 0.156 0.126 0.282 0.282 0.282h1.129c0.156 0 0.282-0.126 0.282-0.282v-1.129c0-0.156-0.126-0.282-0.282-0.282zM19.388 14.871h-0.565v-0.565h0.565v0.565z"></path>
<path fill="#fff" style="fill: var(--color1, #fff)" d="M21.929 13.742h-1.129c-0.156 0-0.282 0.126-0.282 0.282v1.129c0 0.156 0.126 0.282 0.282 0.282h1.129c0.156 0 0.282-0.126 0.282-0.282v-1.129c0-0.156-0.126-0.282-0.282-0.282zM21.647 14.871h-0.565v-0.565h0.565v0.565z"></path>
<path fill="#fff" style="fill: var(--color1, #fff)" d="M11.2 17.13h1.129c0.156 0 0.282-0.126 0.282-0.282v-1.129c0-0.156-0.126-0.282-0.282-0.282h-1.129c-0.156 0-0.282 0.126-0.282 0.282v1.129c0 0.156 0.126 0.282 0.282 0.282zM11.482 16h0.565v0.565h-0.565v-0.565z"></path>
<path fill="#fff" style="fill: var(--color1, #fff)" d="M14.024 17.13h1.129c0.156 0 0.282-0.126 0.282-0.282v-1.129c0-0.156-0.126-0.282-0.282-0.282h-1.129c-0.156 0-0.282 0.126-0.282 0.282v1.129c0 0.156 0.126 0.282 0.282 0.282zM14.306 16h0.565v0.565h-0.565v-0.565z"></path>
<path fill="#fff" style="fill: var(--color1, #fff)" d="M11.2 14.871h1.129c0.156 0 0.282-0.126 0.282-0.282v-1.129c0-0.156-0.126-0.282-0.282-0.282h-1.129c-0.156 0-0.282 0.126-0.282 0.282v1.129c0 0.156 0.126 0.282 0.282 0.282zM11.482 13.742h0.565v0.565h-0.565v-0.565z"></path>
<path fill="#fff" style="fill: var(--color1, #fff)" d="M14.024 14.871h1.129c0.156 0 0.282-0.126 0.282-0.282v-1.129c0-0.156-0.126-0.282-0.282-0.282h-1.129c-0.156 0-0.282 0.126-0.282 0.282v1.129c0 0.156 0.126 0.282 0.282 0.282zM14.306 13.742h0.565v0.565h-0.565v-0.565z"></path>
<path fill="#fff" style="fill: var(--color1, #fff)" d="M11.2 12.612h1.129c0.156 0 0.282-0.126 0.282-0.282v-1.129c0-0.156-0.126-0.282-0.282-0.282h-1.129c-0.156 0-0.282 0.126-0.282 0.282v1.129c0 0.156 0.126 0.282 0.282 0.282zM11.482 11.483h0.565v0.565h-0.565v-0.565z"></path>
<path fill="#fff" style="fill: var(--color1, #fff)" d="M14.024 12.612h1.129c0.156 0 0.282-0.126 0.282-0.282v-1.129c0-0.156-0.126-0.282-0.282-0.282h-1.129c-0.156 0-0.282 0.126-0.282 0.282v1.129c0 0.156 0.126 0.282 0.282 0.282zM14.306 11.483h0.565v0.565h-0.565v-0.565z"></path>
</symbol>
<symbol id="icon-left-arrow" viewBox="0 0 32 32">
<path fill="none" stroke="#c4c4c4" style="stroke: var(--color2, #c4c4c4)" stroke-linejoin="miter" stroke-linecap="butt" stroke-miterlimit="4" stroke-width="0.7273" d="M16 31.636c-8.636 0-15.636-7.001-15.636-15.636s7.001-15.636 15.636-15.636c8.636 0 15.636 7.001 15.636 15.636s-7.001 15.636-15.636 15.636z"></path>
<path fill="none" stroke="#fff" style="stroke: var(--color1, #fff)" stroke-linejoin="miter" stroke-linecap="butt" stroke-miterlimit="10" stroke-width="1.4545" d="M17.455 21.091l-4.364-4.362 4.364-4.365"></path>
</symbol>
<symbol id="icon-phone-id" viewBox="0 0 32 32">
<path fill="none" stroke="#fff" style="stroke: var(--color1, #fff)" stroke-linejoin="miter" stroke-linecap="butt" stroke-miterlimit="4" stroke-width="0.3765" d="M31.812 16c0 8.733-7.079 15.812-15.812 15.812s-15.812-7.079-15.812-15.812c0-8.733 7.079-15.812 15.812-15.812s15.812 7.079 15.812 15.812z"></path>
<path fill="#fff" style="fill: var(--color1, #fff)" d="M11.388 8.518c0-0.112 0.045-0.22 0.124-0.299s0.187-0.124 0.299-0.124h7.624c0.112 0 0.22 0.045 0.299 0.124s0.124 0.187 0.124 0.299v1.553h0.565v-1.553c-0-0.262-0.105-0.513-0.29-0.698s-0.436-0.289-0.698-0.29h-7.624c-0.262 0-0.513 0.104-0.698 0.29s-0.289 0.436-0.29 0.698v1.553h0.565v-1.553z"></path>
<path fill="#fff" style="fill: var(--color1, #fff)" d="M19.859 22.212h-8.471v-0.847h-0.565v2.118c0 0.262 0.104 0.513 0.29 0.698s0.436 0.289 0.698 0.29h7.624c0.262-0 0.513-0.105 0.698-0.29s0.289-0.436 0.29-0.698v-2.118h-0.565v0.847zM19.435 23.906h-7.624c-0.112-0-0.22-0.045-0.299-0.124s-0.124-0.187-0.124-0.299v-0.706h8.471v0.706c-0 0.112-0.045 0.22-0.124 0.299s-0.187 0.124-0.299 0.124z"></path>
<path fill="#fff" style="fill: var(--color1, #fff)" d="M14.494 8.941h2.259v0.565h-2.259v-0.565z"></path>
<path fill="#fff" style="fill: var(--color1, #fff)" d="M23.529 20.165c0 0.019-0.007 0.037-0.021 0.050s-0.031 0.021-0.050 0.021h-15.671c-0.019 0-0.037-0.007-0.050-0.021s-0.021-0.031-0.021-0.050v-7.271h-0.565v7.271c0 0.168 0.067 0.33 0.186 0.449s0.281 0.186 0.449 0.186h15.671c0.168-0 0.33-0.067 0.449-0.186s0.186-0.281 0.186-0.449v-2.188h-0.565v2.188z"></path>
<path fill="#fff" style="fill: var(--color1, #fff)" d="M23.459 10.635h-15.671c-0.168 0-0.33 0.067-0.449 0.186s-0.186 0.281-0.186 0.449v1.059h0.565v-1.059c0-0.019 0.007-0.037 0.021-0.050s0.031-0.021 0.050-0.021h15.671c0.019 0 0.037 0.007 0.050 0.021s0.021 0.031 0.021 0.050v6.141h0.565v-6.141c-0-0.168-0.067-0.33-0.186-0.449s-0.281-0.186-0.449-0.186z"></path>
<path fill="#fff" style="fill: var(--color1, #fff)" d="M17.6 17.976h0.565v1.129h-0.565v-1.129z"></path>
<path fill="#fff" style="fill: var(--color1, #fff)" d="M16.471 17.976h0.565v1.129h-0.565v-1.129z"></path>
<path fill="#fff" style="fill: var(--color1, #fff)" d="M18.729 17.976h1.129v1.129h-1.129v-1.129z"></path>
<path fill="#fff" style="fill: var(--color1, #fff)" d="M20.424 17.976h0.565v1.129h-0.565v-1.129z"></path>
<path fill="#fff" style="fill: var(--color1, #fff)" d="M21.553 17.976h1.129v1.129h-1.129v-1.129z"></path>
<path fill="#fff" style="fill: var(--color1, #fff)" d="M16.471 15.153h3.953v0.565h-3.953v-0.565z"></path>
<path fill="#fff" style="fill: var(--color1, #fff)" d="M20.988 15.153h1.694v0.565h-1.694v-0.565z"></path>
<path fill="#fff" style="fill: var(--color1, #fff)" d="M18.729 16.282h3.953v0.565h-3.953v-0.565z"></path>
<path fill="#fff" style="fill: var(--color1, #fff)" d="M16.471 16.282h1.694v0.565h-1.694v-0.565z"></path>
<path fill="#fff" style="fill: var(--color1, #fff)" d="M16.471 14.024h1.129v0.565h-1.129v-0.565z"></path>
<path fill="#fff" style="fill: var(--color1, #fff)" d="M18.165 14.024h2.259v0.565h-2.259v-0.565z"></path>
<path fill="#fff" style="fill: var(--color1, #fff)" d="M19.859 12.329h0.565v0.565h-0.565v-0.565z"></path>
<path fill="#fff" style="fill: var(--color1, #fff)" d="M20.988 12.329h0.565v0.565h-0.565v-0.565z"></path>
<path fill="#fff" style="fill: var(--color1, #fff)" d="M22.118 12.329h0.565v0.565h-0.565v-0.565z"></path>
<path fill="#fff" style="fill: var(--color1, #fff)" d="M16.471 12.894h2.541v0.565h-2.541v-0.565z"></path>
<path fill="#fff" style="fill: var(--color1, #fff)" d="M15.059 19.671c0.075 0 0.147-0.030 0.2-0.083s0.083-0.125 0.083-0.2v-7.341c0-0.075-0.030-0.147-0.083-0.2s-0.125-0.083-0.2-0.083h-6.212c-0.075 0-0.147 0.030-0.2 0.083s-0.083 0.125-0.083 0.2v7.341c0 0.075 0.030 0.147 0.083 0.2s0.125 0.083 0.2 0.083h6.212zM9.129 18.428c0.001-0.158 0.049-0.312 0.139-0.442s0.217-0.229 0.365-0.285l1.374-0.515 0.155 0.207c0.092 0.123 0.211 0.222 0.349 0.291s0.289 0.104 0.442 0.104 0.305-0.036 0.442-0.104c0.137-0.069 0.257-0.168 0.349-0.291l0.155-0.207 1.374 0.515c0.148 0.056 0.275 0.155 0.365 0.285s0.138 0.284 0.139 0.442v0.678h-5.647v-0.678zM12.485 16.796l-0.194 0.258c-0.039 0.053-0.091 0.095-0.149 0.125s-0.124 0.045-0.189 0.045c-0.066 0-0.131-0.015-0.189-0.045s-0.11-0.072-0.149-0.125l-0.194-0.258 0.171-0.514h0.722l0.171 0.514zM12.8 15.294c-0 0.112-0.045 0.22-0.124 0.299s-0.187 0.124-0.299 0.124h-0.847c-0.112-0-0.22-0.045-0.299-0.124s-0.124-0.187-0.124-0.299v-1.412c0-0.112 0.045-0.22 0.124-0.299s0.187-0.124 0.299-0.124h0.847c0.112 0 0.22 0.045 0.299 0.124s0.124 0.187 0.124 0.299v1.412zM14.776 12.329v5.006c-0.094-0.067-0.197-0.122-0.306-0.163l-1.446-0.542-0.159-0.478c0.151-0.086 0.277-0.211 0.365-0.362s0.134-0.322 0.134-0.496v-1.412c-0-0.262-0.104-0.513-0.29-0.698s-0.436-0.289-0.698-0.29h-0.847c-0.262 0-0.513 0.104-0.698 0.29s-0.289 0.436-0.29 0.698v1.412c0 0.174 0.046 0.345 0.134 0.496s0.213 0.276 0.365 0.362l-0.159 0.478-1.446 0.542c-0.109 0.041-0.211 0.096-0.306 0.163v-5.006h5.647z"></path>
</symbol>
<symbol id="icon-planet" viewBox="0 0 32 32">
<path fill="none" stroke="#fff" style="stroke: var(--color1, #fff)" stroke-linejoin="miter" stroke-linecap="butt" stroke-miterlimit="4" stroke-width="0.3765" d="M31.812 16c0 8.733-7.079 15.812-15.812 15.812s-15.812-7.079-15.812-15.812c0-8.733 7.079-15.812 15.812-15.812s15.812 7.079 15.812 15.812z"></path>
<path fill="#fff" style="fill: var(--color1, #fff)" d="M22.617 16.191c0-0.388-0.033-0.775-0.1-1.158l-0.55 0.096c0.41 2.349-0.575 4.723-2.528 6.091l-0.45-0.735c-0.152-0.246-0.166-0.554-0.035-0.813l0.127-0.254c0.047-0.095 0.144-0.155 0.25-0.154h0.394c0.343 0.001 0.652-0.208 0.778-0.527l0.378-0.946c0.040-0.099 0.060-0.205 0.060-0.311v-0.615c0-0.148-0.058-0.291-0.164-0.395l-0.335-0.335c-0.17-0.17-0.43-0.212-0.645-0.105l-0.688 0.344c-0.079 0.039-0.171 0.039-0.25 0l-1.118-0.559c-0.094-0.047-0.154-0.144-0.154-0.249v-0.772c0-0.309-0.25-0.559-0.559-0.559-0.154 0-0.279-0.125-0.279-0.279v-0.279c0-0.088 0.041-0.171 0.112-0.223l0.894-0.671-0.335-0.447-0.894 0.671c-0.211 0.159-0.335 0.407-0.335 0.671v0.279c0 0.463 0.375 0.838 0.838 0.838v0.772c-0.001 0.318 0.179 0.608 0.463 0.75l1.118 0.559c0.236 0.117 0.514 0.117 0.75 0l0.688-0.344 0.335 0.335v0.615c0 0.035-0.007 0.071-0.020 0.104l-0.378 0.946c-0.042 0.106-0.145 0.176-0.259 0.176h-0.394c-0.318-0.001-0.608 0.179-0.75 0.463l-0.127 0.254c-0.217 0.431-0.195 0.944 0.058 1.355l0.455 0.744c-1.721 0.991-3.816 1.085-5.62 0.254l0.343-0.229c0.046-0.031 0.099-0.047 0.154-0.047h0.717c0.223 0.001 0.436-0.088 0.593-0.246l0.79-0.79c0.158-0.157 0.246-0.37 0.246-0.593v-1.29c0-0.151-0.041-0.3-0.119-0.43l-0.597-0.998c-0.153-0.249-0.424-0.402-0.716-0.403h-0.784c-0.281-0-0.543 0.14-0.698 0.373l-0.309 0.465h-0.689c-0.309 0-0.559 0.25-0.559 0.559v0.534c0 0.095-0.048 0.183-0.128 0.235l-0.872 0.562c-0.625-0.982-0.957-2.122-0.956-3.286 0-0.094 0.003-0.187 0.007-0.279h0.486c0.106-0 0.203 0.060 0.25 0.155l0.327 0.656c0.095 0.189 0.288 0.308 0.5 0.307h0.295c0.176 0 0.341-0.082 0.447-0.222s0.14-0.322 0.091-0.49l-0.356-1.243h0.551c0.19 0 0.375-0.065 0.524-0.184l0.912-0.73c0.294-0.236 0.395-0.638 0.247-0.985l-0.478-1.118c-0.055-0.129-0.007-0.278 0.113-0.35l0.704-0.422c0.255-0.154 0.41-0.431 0.407-0.729l-0.005-0.409c0.901-0.169 1.829-0.134 2.715 0.102l0.143-0.539c-2.775-0.742-5.714 0.366-7.309 2.754s-1.491 5.528 0.258 7.807c1.749 2.279 4.755 3.19 7.475 2.267s4.55-3.476 4.55-6.349zM14.228 10.28l0.003 0.284c0.001 0.099-0.050 0.192-0.136 0.243l-0.704 0.422c-0.358 0.217-0.503 0.664-0.339 1.049l0.478 1.118c0.050 0.115 0.016 0.25-0.082 0.328l-0.912 0.729c-0.050 0.039-0.111 0.060-0.174 0.060h-0.551c-0.176-0-0.341 0.082-0.447 0.222s-0.14 0.322-0.091 0.49l0.356 1.243h-0.295l-0.327-0.654c-0.141-0.285-0.432-0.464-0.749-0.463h-0.434c0.336-2.413 2.063-4.401 4.405-5.072zM11.041 19.935l0.854-0.55c0.24-0.154 0.384-0.419 0.384-0.704v-0.534h0.689c0.187 0 0.361-0.093 0.465-0.249l0.31-0.465c0.052-0.078 0.139-0.124 0.232-0.124h0.784c0.097 0 0.187 0.050 0.238 0.132l0.596 0.996c0.026 0.043 0.040 0.093 0.040 0.143v1.29c0 0.074-0.029 0.145-0.082 0.198l-0.79 0.79c-0.052 0.053-0.124 0.082-0.198 0.082h-0.717c-0.166 0-0.328 0.049-0.465 0.141l-0.596 0.398c-0.673-0.4-1.265-0.924-1.743-1.545z"></path>
<path fill="#fff" style="fill: var(--color1, #fff)" d="M8.107 16.463l-0.557 0.039c0.013 0.189 0.033 0.381 0.059 0.568l0.554-0.077c-0.024-0.175-0.043-0.356-0.055-0.531z"></path>
<path fill="#fff" style="fill: var(--color1, #fff)" d="M8.954 12.329l-0.496-0.257c-0.087 0.168-0.17 0.343-0.245 0.518l0.513 0.222c0.071-0.163 0.148-0.325 0.229-0.483z"></path>
<path fill="#fff" style="fill: var(--color1, #fff)" d="M8.254 17.519l-0.547 0.115c0.039 0.186 0.084 0.373 0.136 0.556l0.538-0.152c-0.048-0.171-0.090-0.345-0.127-0.519z"></path>
<path fill="#fff" style="fill: var(--color1, #fff)" d="M8.247 14.337l-0.548-0.112c-0.038 0.185-0.070 0.375-0.095 0.564l0.554 0.074c0.024-0.176 0.053-0.353 0.089-0.526z"></path>
<path fill="#fff" style="fill: var(--color1, #fff)" d="M9.508 11.416l-0.457-0.322c-0.109 0.155-0.214 0.316-0.313 0.479l0.478 0.29c0.092-0.152 0.191-0.303 0.292-0.447z"></path>
<path fill="#fff" style="fill: var(--color1, #fff)" d="M8.531 13.309l-0.527-0.186c-0.063 0.18-0.121 0.363-0.172 0.546l0.539 0.149c0.047-0.17 0.101-0.341 0.16-0.509z"></path>
<path fill="#fff" style="fill: var(--color1, #fff)" d="M8.105 15.395l-0.559-0.036c-0.011 0.182-0.017 0.367-0.017 0.553v0.018l0.559-0.018c0-0.173 0.006-0.346 0.017-0.517z"></path>
<path fill="#fff" style="fill: var(--color1, #fff)" d="M8.543 18.547l-0.526 0.188c0.064 0.179 0.135 0.358 0.211 0.531l0.512-0.223c-0.071-0.162-0.137-0.328-0.197-0.496z"></path>
<path fill="#fff" style="fill: var(--color1, #fff)" d="M10.181 10.586l-0.409-0.38c-0.129 0.14-0.256 0.285-0.375 0.432l0.434 0.352c0.111-0.138 0.229-0.273 0.35-0.404z"></path>
<path fill="#fff" style="fill: var(--color1, #fff)" d="M14.822 8.164l-0.078-0.554c-0.187 0.026-0.377 0.059-0.563 0.098l0.115 0.547c0.174-0.037 0.351-0.068 0.527-0.092z"></path>
<path fill="#fff" style="fill: var(--color1, #fff)" d="M15.886 8.088l-0.002-0.559c-0.191 0-0.383 0.008-0.571 0.021l0.040 0.559c0.176-0.014 0.354-0.021 0.534-0.021z"></path>
<path fill="#fff" style="fill: var(--color1, #fff)" d="M13.776 8.383l-0.152-0.538c-0.182 0.051-0.366 0.11-0.545 0.175l0.189 0.526c0.167-0.060 0.338-0.115 0.508-0.163z"></path>
<path fill="#fff" style="fill: var(--color1, #fff)" d="M10.959 9.855l-0.354-0.432c-0.147 0.12-0.292 0.247-0.43 0.377l0.382 0.407c0.129-0.121 0.264-0.24 0.401-0.352z"></path>
<path fill="#fff" style="fill: var(--color1, #fff)" d="M12.773 8.743l-0.224-0.512c-0.173 0.076-0.346 0.159-0.515 0.247l0.259 0.495c0.157-0.082 0.319-0.159 0.48-0.23z"></path>
<path fill="#fff" style="fill: var(--color1, #fff)" d="M11.828 9.237l-0.292-0.476c-0.162 0.099-0.322 0.206-0.477 0.315l0.324 0.455c0.144-0.102 0.294-0.202 0.445-0.294z"></path>
<path fill="#fff" style="fill: var(--color1, #fff)" d="M19.034 23.087l0.224 0.512c0.174-0.076 0.347-0.159 0.515-0.246l-0.257-0.496c-0.158 0.082-0.32 0.159-0.482 0.23z"></path>
<path fill="#fff" style="fill: var(--color1, #fff)" d="M21.63 21.25l0.409 0.382c0.13-0.14 0.256-0.284 0.376-0.431l-0.433-0.353c-0.112 0.138-0.231 0.273-0.351 0.402z"></path>
<path fill="#fff" style="fill: var(--color1, #fff)" d="M20.851 21.979l0.353 0.433c0.147-0.12 0.292-0.246 0.431-0.376l-0.381-0.408c-0.13 0.122-0.264 0.239-0.402 0.351z"></path>
<path fill="#fff" style="fill: var(--color1, #fff)" d="M22.305 20.422l0.456 0.324c0.11-0.155 0.215-0.316 0.314-0.478l-0.477-0.29c-0.093 0.15-0.191 0.301-0.293 0.445z"></path>
<path fill="#fff" style="fill: var(--color1, #fff)" d="M19.98 22.595l0.29 0.477c0.162-0.099 0.322-0.204 0.477-0.314l-0.323-0.456c-0.144 0.103-0.294 0.201-0.445 0.293z"></path>
<path fill="#fff" style="fill: var(--color1, #fff)" d="M18.030 23.444l0.151 0.538c0.182-0.051 0.366-0.11 0.545-0.173l-0.188-0.526c-0.168 0.061-0.338 0.114-0.508 0.161z"></path>
<path fill="#fff" style="fill: var(--color1, #fff)" d="M23.717 16.445l0.557 0.037c0.013-0.189 0.019-0.382 0.019-0.571h-0.559c0 0.179-0.006 0.357-0.018 0.534z"></path>
<path fill="#fff" style="fill: var(--color1, #fff)" d="M23.573 17.502l0.547 0.112c0.038-0.185 0.071-0.375 0.096-0.564l-0.554-0.075c-0.024 0.177-0.054 0.354-0.090 0.527z"></path>
<path fill="#fff" style="fill: var(--color1, #fff)" d="M23.286 18.53l0.526 0.187c0.064-0.18 0.122-0.363 0.173-0.545l-0.538-0.15c-0.048 0.17-0.102 0.341-0.161 0.509z"></path>
<path fill="#fff" style="fill: var(--color1, #fff)" d="M22.86 19.509l0.496 0.257c0.087-0.168 0.17-0.342 0.246-0.517l-0.512-0.224c-0.071 0.163-0.148 0.326-0.23 0.483z"></path>
<path fill="#fff" style="fill: var(--color1, #fff)" d="M8.97 19.523l-0.495 0.259c0.088 0.168 0.183 0.335 0.281 0.497l0.478-0.291c-0.093-0.15-0.182-0.307-0.264-0.464z"></path>
<path fill="#fff" style="fill: var(--color1, #fff)" d="M10.631 22.422c0.148 0.12 0.302 0.237 0.456 0.346l0.321-0.457c-0.145-0.103-0.287-0.21-0.426-0.322l-0.351 0.434z"></path>
<path fill="#fff" style="fill: var(--color1, #fff)" d="M12.581 23.606c0.174 0.075 0.353 0.146 0.533 0.21l0.186-0.527c-0.168-0.060-0.335-0.125-0.497-0.196l-0.223 0.513z"></path>
<path fill="#fff" style="fill: var(--color1, #fff)" d="M11.565 23.080c0.163 0.099 0.331 0.193 0.499 0.279l0.257-0.497c-0.157-0.081-0.314-0.169-0.466-0.262l-0.29 0.479z"></path>
<path fill="#fff" style="fill: var(--color1, #fff)" d="M9.793 21.641c0.13 0.14 0.267 0.275 0.405 0.404l0.381-0.409c-0.129-0.12-0.257-0.247-0.378-0.377l-0.408 0.382z"></path>
<path fill="#fff" style="fill: var(--color1, #fff)" d="M9.526 20.433l-0.456 0.323c0.11 0.155 0.226 0.307 0.346 0.455l0.432-0.354c-0.112-0.137-0.22-0.279-0.322-0.424z"></path>
<path fill="#fff" style="fill: var(--color1, #fff)" d="M16.985 23.662l0.076 0.553c0.188-0.026 0.377-0.058 0.564-0.097l-0.113-0.547c-0.175 0.036-0.351 0.067-0.526 0.091z"></path>
<path fill="#fff" style="fill: var(--color1, #fff)" d="M14.78 24.218c0.187 0.025 0.378 0.044 0.569 0.056l0.037-0.559c-0.179-0.012-0.357-0.030-0.531-0.053l-0.075 0.556z"></path>
<path fill="#fff" style="fill: var(--color1, #fff)" d="M15.92 23.735v0.559c0.191 0 0.384-0.007 0.572-0.020l-0.038-0.559c-0.176 0.013-0.354 0.020-0.533 0.020z"></path>
<path fill="#fff" style="fill: var(--color1, #fff)" d="M13.66 23.988c0.184 0.051 0.371 0.096 0.556 0.134l0.112-0.547c-0.173-0.035-0.348-0.078-0.519-0.125l-0.149 0.538z"></path>
<path fill="#fff" style="fill: var(--color1, #fff)" d="M18.203 9.887l-0.161 2.733c-0.023 0.398 0.125 0.788 0.407 1.070l0.542 0.541 0.986-2.567 0.997 0.997v1.233c-0 0.222 0.088 0.435 0.246 0.591l0.484 0.485 0.593-0.988 0.142 0.142c0.211 0.218 0.522 0.305 0.815 0.229s0.522-0.306 0.599-0.599c0.077-0.293-0.011-0.605-0.229-0.815l-0.142-0.142 0.988-0.593-0.484-0.485c-0.157-0.158-0.37-0.246-0.593-0.246h-1.234l-0.995-0.997 2.568-0.988-0.543-0.542c-0.282-0.282-0.671-0.43-1.070-0.407l-2.733 0.161-0.899-0.899c-0.332-0.316-0.854-0.316-1.186 0-0.327 0.327-0.327 0.858 0 1.186l0.9 0.899zM18.78 13.223c-0.128-0.162-0.192-0.365-0.18-0.57l0.131-2.235 0.815 0.815-0.766 1.991zM21.594 14.067c-0.039-0.050-0.061-0.111-0.061-0.175v-0.674l0.357 0.357-0.296 0.491zM23.393 12.033c0.063 0 0.125 0.022 0.175 0.061l-0.492 0.297-0.357-0.356 0.674-0.002zM22.152 9.099c0.206-0.012 0.409 0.052 0.57 0.18l-1.992 0.766-0.815-0.815 2.236-0.132zM17.698 8.198c0.109-0.109 0.286-0.109 0.395 0l5.137 5.137c0.109 0.109 0.109 0.286 0 0.395-0.11 0.106-0.285 0.106-0.395 0l-5.136-5.137c-0.109-0.109-0.109-0.286 0-0.395z"></path>
</symbol>
<symbol id="icon-right-arrow" viewBox="0 0 32 32">
<path fill="none" stroke="#c4c4c4" style="stroke: var(--color2, #c4c4c4)" stroke-linejoin="miter" stroke-linecap="butt" stroke-miterlimit="4" stroke-width="0.7273" d="M16 0.364c8.636 0 15.636 7.001 15.636 15.636s-7.001 15.636-15.636 15.636c-8.636 0-15.636-7.001-15.636-15.636s7.001-15.636 15.636-15.636z"></path>
<path fill="none" stroke="#fff" style="stroke: var(--color1, #fff)" stroke-linejoin="miter" stroke-linecap="butt" stroke-miterlimit="10" stroke-width="1.4545" d="M13.979 12.364l4.364 4.362-4.364 4.365"></path>
</symbol>
<symbol id="icon-travel" viewBox="0 0 32 32">
<path fill="none" stroke="#fff" style="stroke: var(--color1, #fff)" stroke-linejoin="miter" stroke-linecap="butt" stroke-miterlimit="4" stroke-width="0.3765" d="M31.812 16c0 8.733-7.079 15.812-15.812 15.812s-15.812-7.079-15.812-15.812c0-8.733 7.079-15.812 15.812-15.812s15.812 7.079 15.812 15.812z"></path>
<path fill="#fff" style="fill: var(--color1, #fff)" d="M23.162 15.024h-4.54c0.206-0.472 0.293-1.005 0.271-1.53 0.559 0.031 1.071-0.381 1.071-0.969 0-0.203-0.063-0.392-0.17-0.548 0.175-0.116 0.291-0.315 0.291-0.541v-0.464c0-0.358-0.291-0.649-0.649-0.649h-0.543v-1.639c0-1.052-0.856-1.908-1.908-1.908h-2.685c-1.052 0-1.908 0.856-1.908 1.908v1.639h-0.543c-0.358 0-0.649 0.291-0.649 0.649v0.464c0 0.226 0.116 0.425 0.291 0.541-0.107 0.156-0.17 0.345-0.17 0.548 0 0.565 0.501 1.025 1.071 0.969-0.050 0.497 0.082 1.093 0.272 1.53h-4.541c-0.535 0-0.971 0.435-0.971 0.971v2.598c0 0.535 0.435 0.971 0.971 0.971h1.044c-0.024 0.096-0.042 0.193-0.055 0.292-0.127-0.004-0.253 0.030-0.364 0.101-0.178 0.114-0.284 0.308-0.284 0.517v0.81h-0.351c-0.239 0-0.449 0.169-0.5 0.403-0.088 0.4-0.128 0.81-0.12 1.219 0.007 0.339 0.047 0.678 0.12 1.010 0.051 0.234 0.261 0.403 0.5 0.403h0.351v0.265c0 0.146 0.118 0.265 0.265 0.265s0.265-0.119 0.265-0.265v-0.265h0.15c0.486 0 0.881-0.395 0.881-0.881v-1.272c0-0.486-0.395-0.881-0.881-0.881h-0.15v-0.81c0.004-0.070 0.067-0.11 0.144-0.078l2.783 1.266v2.922c0 0.146 0.118 0.265 0.265 0.265s0.265-0.119 0.265-0.265v-2.922l2.927-1.331v4.253c0 0.146 0.118 0.265 0.265 0.265s0.265-0.119 0.265-0.265v-4.253c0.065 0.032 2.857 1.298 2.927 1.331v2.922c0 0.146 0.119 0.265 0.265 0.265s0.265-0.119 0.265-0.265v-2.922l2.783-1.266c0.078-0.031 0.14 0.009 0.144 0.078v0.81h-0.15c-0.486 0-0.881 0.395-0.881 0.881v1.272c0 0.486 0.395 0.881 0.881 0.881h0.15v0.265c0 0.146 0.119 0.265 0.265 0.265s0.265-0.119 0.265-0.265v-0.265h0.351c0.239 0 0.449-0.169 0.5-0.403 0.073-0.331 0.113-0.671 0.12-1.010 0.008-0.409-0.032-0.819-0.12-1.219-0.051-0.233-0.261-0.403-0.5-0.403h-0.351v-0.81c0-0.209-0.106-0.402-0.284-0.517-0.11-0.071-0.237-0.105-0.364-0.101-0.012-0.098-0.030-0.196-0.055-0.292h1.044c0.535 0 0.971-0.435 0.971-0.971v-2.598c-0-0.535-0.435-0.971-0.971-0.971zM8.61 19.034h-0.486c-0.243 0-0.441-0.198-0.441-0.441v-2.598c0-0.243 0.198-0.441 0.441-0.441h0.486v3.481zM9.145 21.812c0.194 0 0.352 0.158 0.352 0.352v1.272c0 0.194-0.158 0.352-0.352 0.352h-1.017c-0.063-0.294-0.098-0.594-0.104-0.894-0.007-0.363 0.028-0.726 0.105-1.082l1.017-0zM23.157 21.812c0.077 0.355 0.112 0.719 0.105 1.082-0.006 0.3-0.041 0.6-0.105 0.894h-1.017c-0.194 0-0.352-0.158-0.352-0.352v-1.272c0-0.194 0.158-0.352 0.352-0.352l1.017 0zM21.087 15.554v2.582c-0.234-0.149-0.494-0.258-0.768-0.319l-2.6-0.571c-0.201-0.044-0.346-0.225-0.346-0.431v-0.339c0.204-0.128 0.395-0.28 0.569-0.454 0.145-0.145 0.274-0.302 0.388-0.468l2.758-0zM18.893 12.964v-0.88c0.272-0.041 0.542 0.155 0.542 0.44 0 0.28-0.267 0.483-0.542 0.44zM12.922 8.684c0-0.76 0.618-1.378 1.378-1.378h2.685c0.76 0 1.378 0.618 1.378 1.378v1.639h-5.442v-1.639zM12.392 12.964c-0.278 0.034-0.542-0.148-0.542-0.44 0-0.284 0.271-0.481 0.542-0.44v0.88zM11.849 11.555c-0.066 0-0.119-0.054-0.119-0.119v-0.464c0-0.066 0.054-0.119 0.119-0.119h7.587c0.066 0 0.119 0.054 0.119 0.119v0.464c0 0.066-0.054 0.119-0.119 0.119h-4.44c-0.146 0-0.265 0.118-0.265 0.265s0.118 0.265 0.265 0.265h3.367v1.639c0 0.73-0.287 1.414-0.797 1.924-0.176 0.176-0.373 0.325-0.584 0.445-0.41 0.233-0.854 0.352-1.34 0.352-1.5 0-2.721-1.221-2.721-2.721v-1.639h0.839c0.146 0 0.265-0.118 0.265-0.265s-0.119-0.265-0.265-0.265h-1.912zM17.001 17.342l-1.358 1.358-1.358-1.358c0.113-0.173 0.167-0.385 0.158-0.598 0.371 0.148 0.776 0.23 1.2 0.23 0.418 0 0.823-0.079 1.2-0.229-0.018 0.205 0.050 0.43 0.158 0.597zM10.198 15.554h2.76c0.252 0.368 0.577 0.682 0.955 0.92v0.341c0 0.206-0.146 0.387-0.347 0.431l-2.6 0.571c-0.274 0.060-0.534 0.169-0.768 0.319v-2.582h0zM9.371 19.034h-0.231v-3.481h0.529v3.041c-0.116 0.135-0.216 0.283-0.298 0.44zM12.186 21.199l-2.558-1.164c0.049-0.818 0.644-1.524 1.452-1.702l1.6-0.352 2.057 2.057-2.55 1.16zM19.099 21.199l-2.55-1.16 0.5-0.5c0.103-0.103 0.103-0.271 0-0.374s-0.271-0.103-0.374 0l-0.641 0.641c-0.25-0.105-0.532-0.105-0.782 0l-1.958-1.958 0.387-0.085c0.072-0.016 0.141-0.040 0.206-0.071l1.52 1.52c0.063 0.063 0.148 0.098 0.237 0.098s0.174-0.035 0.237-0.098l1.52-1.52c0.065 0.031 0.133 0.055 0.205 0.071l0.387 0.085-0.435 0.435c-0.103 0.103-0.103 0.271 0 0.374s0.271 0.103 0.374 0l0.675-0.675 1.599 0.351c0.808 0.178 1.403 0.884 1.452 1.702l-2.558 1.164zM22.146 19.034h-0.231c-0.082-0.157-0.182-0.305-0.298-0.44v-3.041h0.529v3.481h-0zM23.603 18.593c0 0.243-0.198 0.441-0.441 0.441h-0.486v-3.481h0.486c0.243 0 0.441 0.198 0.441 0.441v2.598zM17.083 13.529c0.146 0 0.265-0.118 0.265-0.265v-0.576c0-0.146-0.119-0.265-0.265-0.265s-0.265 0.118-0.265 0.265v0.576c0 0.146 0.119 0.265 0.265 0.265zM13.937 12.688v0.576c0 0.146 0.118 0.265 0.265 0.265s0.265-0.118 0.265-0.265v-0.576c0-0.146-0.118-0.265-0.265-0.265s-0.265 0.118-0.265 0.265zM14.939 15.184c0.147 0.081 0.385 0.177 0.688 0.18 0.305 0.003 0.568-0.098 0.719-0.18 0.128-0.070 0.175-0.231 0.105-0.359s-0.231-0.175-0.359-0.105c-0.098 0.054-0.257 0.117-0.459 0.115-0.193-0.002-0.345-0.064-0.439-0.115-0.128-0.070-0.289-0.023-0.359 0.105s-0.023 0.289 0.105 0.359z"></path>
</symbol>
</defs>
</svg>
