<!-- Generated by IcoMoon.io -->
<svg version="1.1" xmlns="http://www.w3.org/2000/svg" width="32" height="32" viewBox="0 0 32 32">
<title>airplane</title>
<path fill="none" stroke="#fff" stroke-linejoin="miter" stroke-linecap="butt" stroke-miterlimit="4" stroke-width="0.3765" d="M31.812 16c0 8.733-7.079 15.812-15.812 15.812s-15.812-7.079-15.812-15.812c0-8.733 7.079-15.812 15.812-15.812s15.812 7.079 15.812 15.812z"></path>
<path fill="#fff" d="M15.49 7.169c-0.253-0.253-0.589-0.392-0.947-0.392-0.273 0-0.533 0.081-0.754 0.232-0.22-0.151-0.481-0.232-0.754-0.232-0.358 0-0.694 0.139-0.947 0.392s-0.392 0.589-0.392 0.947c0 0.358 0.139 0.694 0.392 0.947l1.508 1.508c0.053 0.053 0.123 0.080 0.193 0.080s0.14-0.027 0.193-0.080l1.508-1.508c0.522-0.522 0.522-1.372 0-1.894zM15.103 8.677l-1.315 1.315-1.315-1.315c-0.15-0.15-0.232-0.349-0.232-0.561s0.082-0.411 0.232-0.561c0.15-0.15 0.349-0.232 0.561-0.232s0.411 0.083 0.561 0.232c0.051 0.051 0.121 0.080 0.193 0.080s0.142-0.029 0.193-0.080c0.15-0.15 0.349-0.232 0.561-0.232s0.411 0.083 0.561 0.232c0.309 0.309 0.309 0.813 0 1.122z"></path>
<path fill="#fff" d="M18.012 10.133c-0.152-0.152-0.355-0.236-0.57-0.236-0.134 0-0.262 0.032-0.377 0.093-0.115-0.061-0.243-0.093-0.377-0.093-0.215 0-0.418 0.084-0.57 0.236s-0.236 0.355-0.236 0.57c0 0.215 0.084 0.418 0.236 0.57l0.754 0.754c0.051 0.051 0.121 0.080 0.193 0.080s0.142-0.029 0.193-0.080l0.754-0.754c0.314-0.314 0.314-0.826 0-1.14zM17.626 10.887l-0.561 0.561-0.561-0.561c-0.049-0.049-0.076-0.114-0.076-0.184s0.027-0.135 0.076-0.184c0.049-0.049 0.114-0.076 0.184-0.076s0.135 0.027 0.184 0.076c0.051 0.051 0.121 0.080 0.193 0.080h0c0.072-0 0.142-0.029 0.193-0.080 0.049-0.049 0.114-0.076 0.184-0.076s0.135 0.027 0.184 0.076c0.101 0.101 0.101 0.266 0 0.368z"></path>
<path fill="#fff" d="M22.436 11.174c-0.068 0-1.667 0.010-2.509 0.852l-1.693 1.693-8.087-2.021c-0.002-0.001-0.004-0.001-0.006-0.001-0.005-0.001-0.010-0.002-0.016-0.003-0.004-0.001-0.008-0.001-0.012-0.002s-0.009-0.001-0.014-0.001c-0.004-0-0.009-0.001-0.013-0.001s-0.009-0-0.013 0c-0.004 0-0.009 0-0.013 0.001s-0.009 0.001-0.014 0.001c-0.004 0.001-0.008 0.001-0.012 0.002-0.005 0.001-0.010 0.002-0.015 0.003-0.003 0.001-0.006 0.002-0.010 0.002-0.006 0.002-0.011 0.003-0.017 0.005-0.002 0.001-0.005 0.002-0.007 0.003-0.006 0.002-0.012 0.005-0.018 0.007-0.002 0.001-0.004 0.002-0.006 0.003-0.006 0.003-0.011 0.006-0.017 0.009-0.002 0.001-0.004 0.003-0.007 0.004-0.005 0.003-0.010 0.006-0.015 0.010-0.003 0.002-0.005 0.004-0.008 0.006-0.004 0.003-0.008 0.006-0.012 0.010s-0.007 0.006-0.010 0.009c-0.002 0.002-0.004 0.003-0.005 0.005l-0.772 0.772c-0.001 0.001-0.002 0.003-0.004 0.004-0.004 0.004-0.007 0.007-0.010 0.011s-0.006 0.007-0.009 0.011c-0.001 0.002-0.003 0.003-0.004 0.005s-0.002 0.004-0.004 0.005-0.006 0.009-0.009 0.013c-0.002 0.003-0.004 0.007-0.006 0.010-0.002 0.004-0.005 0.009-0.007 0.013s-0.004 0.008-0.005 0.011c-0.002 0.004-0.004 0.009-0.005 0.013s-0.003 0.008-0.004 0.013c-0.001 0.004-0.003 0.008-0.004 0.012s-0.002 0.009-0.003 0.014c-0.001 0.004-0.002 0.008-0.002 0.012s-0.001 0.009-0.002 0.014c-0 0.004-0.001 0.008-0.001 0.012s-0.001 0.009-0.001 0.014c-0 0.004-0 0.008 0 0.013s0 0.009 0.001 0.013c0 0.005 0.001 0.009 0.001 0.014s0.001 0.008 0.002 0.012c0.001 0.005 0.002 0.009 0.003 0.014s0.002 0.008 0.003 0.011c0.001 0.005 0.003 0.009 0.004 0.014s0.002 0.007 0.004 0.011c0.002 0.004 0.004 0.009 0.005 0.013s0.003 0.008 0.005 0.011c0.002 0.004 0.004 0.008 0.006 0.012s0.005 0.008 0.007 0.012c0.002 0.004 0.005 0.007 0.007 0.011s0.006 0.008 0.009 0.012c0.002 0.003 0.005 0.006 0.007 0.009s0.007 0.008 0.011 0.012c0.002 0.002 0.003 0.003 0.004 0.005s0.003 0.003 0.004 0.004 0.007 0.006 0.011 0.010c0.004 0.003 0.008 0.006 0.012 0.009 0.001 0.001 0.003 0.002 0.004 0.004l5.665 4.187-2.745 2.745-1.384-0.462c-0.003-0.001-0.005-0.001-0.008-0.002-0.005-0.002-0.010-0.003-0.015-0.004s-0.009-0.002-0.013-0.003c-0.004-0.001-0.008-0.002-0.012-0.002-0.005-0.001-0.010-0.001-0.015-0.002-0.004-0-0.007-0.001-0.011-0.001-0.005-0-0.011-0-0.016-0-0.003 0-0.007 0-0.010 0-0.005 0-0.011 0.001-0.016 0.001-0.004 0-0.007 0.001-0.011 0.001-0.005 0.001-0.010 0.002-0.015 0.003-0.004 0.001-0.007 0.002-0.011 0.002-0.005 0.001-0.010 0.003-0.015 0.005-0.003 0.001-0.007 0.002-0.010 0.003-0.005 0.002-0.011 0.004-0.016 0.007-0.003 0.001-0.006 0.002-0.008 0.004-0.006 0.003-0.012 0.006-0.018 0.009-0.002 0.001-0.003 0.002-0.005 0.003l-0.004 0.002c-0 0-0.001 0.001-0.001 0.001l-1.28 0.768c-0.001 0-0.001 0.001-0.002 0.001l-0 0c-0.001 0-0.001 0.001-0.002 0.001-0.007 0.004-0.014 0.009-0.020 0.014-0.002 0.002-0.004 0.003-0.006 0.005-0.005 0.004-0.010 0.008-0.014 0.012-0.003 0.003-0.006 0.006-0.009 0.009s-0.007 0.006-0.010 0.010c-0.004 0.005-0.008 0.009-0.011 0.014-0.002 0.002-0.004 0.004-0.005 0.007-0.005 0.007-0.009 0.013-0.014 0.020-0 0.001-0.001 0.001-0.001 0.002s-0 0-0 0c-0.009 0.016-0.017 0.032-0.023 0.049-0.003 0.007-0.005 0.015-0.007 0.022-0 0.001-0.001 0.002-0.001 0.003-0.002 0.007-0.003 0.014-0.004 0.020-0 0.002-0.001 0.004-0.001 0.006-0.001 0.006-0.001 0.012-0.002 0.017-0 0.003-0.001 0.006-0.001 0.009-0 0.004-0 0.009-0 0.013s-0 0.009 0 0.014c0 0.003 0.001 0.006 0.001 0.009 0.001 0.006 0.001 0.012 0.002 0.018 0 0.002 0.001 0.003 0.001 0.005 0.001 0.007 0.002 0.014 0.004 0.021 0 0 0 0.001 0 0.001 0.003 0.013 0.008 0.025 0.013 0.038 0.002 0.004 0.003 0.007 0.005 0.011 0 0.001 0.001 0.002 0.001 0.003 0.004 0.007 0.007 0.015 0.012 0.022 0 0 0 0 0 0s0.001 0.001 0.001 0.001c0.005 0.009 0.011 0.017 0.018 0.025 0.002 0.002 0.004 0.005 0.006 0.007 0.005 0.006 0.011 0.012 0.017 0.018 0.002 0.002 0.004 0.004 0.006 0.006 0.007 0.007 0.015 0.014 0.024 0.020 0.003 0.002 0.006 0.004 0.008 0.006 0.005 0.003 0.009 0.007 0.014 0.010l2.274 1.365-0.268 0.268c-0.107 0.107-0.107 0.279 0 0.386 0.053 0.053 0.123 0.080 0.193 0.080s0.14-0.027 0.193-0.080l0.268-0.268 1.363 2.272c0 0.001 0.001 0.001 0.001 0.002l0 0c0 0 0 0 0.001 0.001 0.005 0.009 0.012 0.018 0.018 0.026 0.002 0.002 0.004 0.004 0.005 0.007 0.005 0.006 0.011 0.013 0.017 0.019 0.002 0.002 0.004 0.004 0.006 0.006 0.008 0.007 0.015 0.014 0.024 0.020 0.002 0.002 0.005 0.003 0.008 0.005 0.005 0.003 0.010 0.007 0.015 0.010 0.001 0.001 0.002 0.001 0.003 0.002 0.007 0.004 0.014 0.007 0.020 0.010 0.004 0.002 0.008 0.004 0.013 0.006 0.006 0.003 0.012 0.004 0.019 0.006s0.010 0.004 0.016 0.005c0.005 0.001 0.011 0.002 0.016 0.003s0.012 0.003 0.018 0.004c0.007 0.001 0.015 0.001 0.022 0.001 0.004 0 0.008 0.001 0.012 0.001 0 0 0-0 0-0s0 0 0 0c0.004 0 0.008-0.001 0.012-0.001 0.008-0 0.015-0.001 0.022-0.001 0.006-0.001 0.012-0.002 0.019-0.004s0.011-0.002 0.016-0.003c0.005-0.001 0.011-0.003 0.016-0.005s0.012-0.004 0.018-0.006c0.004-0.002 0.009-0.004 0.013-0.006 0.007-0.003 0.014-0.006 0.020-0.010 0.001-0.001 0.002-0.001 0.004-0.002 0.005-0.003 0.010-0.007 0.016-0.010 0.002-0.002 0.005-0.003 0.007-0.005 0.009-0.006 0.017-0.013 0.024-0.020 0.002-0.002 0.004-0.004 0.006-0.006 0.006-0.006 0.012-0.012 0.017-0.019 0.002-0.002 0.004-0.004 0.005-0.006 0.007-0.008 0.013-0.017 0.018-0.026 0-0 0-0.001 0.001-0.001l0-0.001c0-0.001 0.001-0.001 0.001-0.002l0.771-1.285c0.002-0.003 0.003-0.006 0.005-0.009 0.002-0.004 0.005-0.008 0.007-0.013s0.004-0.009 0.006-0.013c0.002-0.004 0.003-0.008 0.005-0.011s0.003-0.009 0.005-0.014c0.001-0.004 0.002-0.007 0.003-0.011s0.002-0.010 0.003-0.014c0.001-0.004 0.002-0.008 0.002-0.012s0.001-0.009 0.002-0.014c0.001-0.004 0.001-0.009 0.001-0.013s0-0.008 0-0.013c0-0.005 0-0.009-0-0.014s-0.001-0.008-0.001-0.012c-0-0.005-0.001-0.010-0.001-0.015s-0.001-0.008-0.002-0.012c-0.001-0.005-0.002-0.009-0.003-0.014s-0.003-0.009-0.004-0.014c-0.001-0.003-0.002-0.006-0.003-0.009l-0.462-1.384 7.859-7.859c0-0 0.001-0.001 0.001-0.001 0.842-0.842 0.852-2.442 0.852-2.509 0-0.151-0.122-0.273-0.273-0.273zM9.725 12.703l0.439-0.439 7.619 1.905-2.582 2.582-5.476-4.047zM21.471 13.569c-0 0-0.001 0.001-0.001 0.001l-7.98 7.98c-0.001 0.001-0.002 0.002-0.003 0.003-0.004 0.004-0.007 0.008-0.011 0.012-0.003 0.003-0.005 0.006-0.008 0.009s-0.005 0.007-0.008 0.011c-0.003 0.004-0.006 0.008-0.008 0.012-0.002 0.003-0.003 0.006-0.005 0.009-0.003 0.005-0.006 0.010-0.008 0.015-0.001 0.003-0.002 0.005-0.004 0.008-0.003 0.005-0.005 0.011-0.007 0.016-0.001 0.003-0.002 0.006-0.003 0.009-0.002 0.005-0.004 0.011-0.005 0.016-0.001 0.004-0.002 0.008-0.003 0.012s-0.002 0.009-0.003 0.014c-0.001 0.005-0.001 0.010-0.002 0.015-0.001 0.004-0.001 0.007-0.001 0.011-0 0.005-0.001 0.011-0.001 0.016-0 0.003-0 0.007-0 0.010 0 0.005 0 0.010 0.001 0.016 0 0.004 0 0.008 0.001 0.011s0.001 0.009 0.002 0.013c0.001 0.005 0.001 0.009 0.002 0.014s0.002 0.007 0.003 0.011 0.003 0.011 0.004 0.016c0 0.001 0.001 0.002 0.001 0.003l0.475 1.425-0.473 0.789-1.201-2.001 1.136-1.136c0.107-0.107 0.107-0.28 0-0.386s-0.28-0.107-0.386 0l-1.136 1.136-2.001-1.201 0.789-0.474 1.425 0.475c0.001 0 0.002 0 0.003 0.001 0.012 0.004 0.024 0.007 0.037 0.009 0.003 0.001 0.006 0.001 0.009 0.001 0.011 0.002 0.023 0.003 0.034 0.003 0.001 0 0.002 0 0.004 0s0.003-0 0.004-0c0.011-0 0.022-0.001 0.032-0.003 0.003-0 0.007-0.001 0.010-0.001 0.012-0.002 0.023-0.005 0.034-0.008 0.002-0.001 0.005-0.002 0.007-0.002 0.010-0.003 0.020-0.008 0.030-0.012 0.002-0.001 0.004-0.002 0.006-0.003 0.011-0.005 0.021-0.012 0.031-0.019 0.003-0.002 0.005-0.004 0.008-0.006 0.008-0.006 0.015-0.012 0.023-0.019 0.002-0.002 0.005-0.004 0.007-0.006 0-0 0.001-0.001 0.001-0.001l7.98-7.98c0.494-0.494 1.379-0.635 1.834-0.676-0.040 0.455-0.181 1.338-0.675 1.833z"></path>
<path fill="#fff" d="M22.192 23.783c-0-0.004-0.001-0.009-0.001-0.013s-0.001-0.008-0.002-0.012c-0.001-0.005-0.002-0.010-0.003-0.015-0-0.002-0.001-0.004-0.001-0.006l-1.75-7.001c-0.037-0.146-0.185-0.235-0.331-0.199s-0.235 0.185-0.199 0.331l1.713 6.851-0.439 0.439-3.531-4.777c-0.090-0.121-0.261-0.147-0.382-0.057s-0.147 0.261-0.057 0.382l3.719 5.032c0.001 0.001 0.002 0.002 0.003 0.004 0.004 0.006 0.009 0.011 0.013 0.016 0.003 0.003 0.005 0.006 0.008 0.008 0.001 0.001 0.002 0.002 0.003 0.003 0.004 0.004 0.008 0.007 0.012 0.011 0.003 0.002 0.005 0.005 0.008 0.007 0.008 0.006 0.015 0.012 0.024 0.017 0.002 0.001 0.005 0.003 0.007 0.004 0.006 0.004 0.013 0.008 0.019 0.011 0.003 0.001 0.006 0.003 0.009 0.004 0.006 0.003 0.012 0.005 0.018 0.008 0.003 0.001 0.006 0.002 0.010 0.003 0.006 0.002 0.013 0.004 0.019 0.006 0.003 0.001 0.006 0.002 0.010 0.002 0.007 0.001 0.014 0.003 0.020 0.004 0.003 0 0.006 0.001 0.009 0.001 0.009 0.001 0.019 0.002 0.028 0.002 0 0 0.001 0 0.001 0s0.001-0 0.001-0c0.012-0 0.024-0.001 0.036-0.003 0.003-0 0.006-0.001 0.009-0.001 0.012-0.002 0.024-0.005 0.036-0.008 0.002-0.001 0.005-0.002 0.007-0.002 0.011-0.004 0.023-0.009 0.034-0.014 0.001-0.001 0.002-0.001 0.003-0.001 0.012-0.006 0.023-0.013 0.034-0.021 0.001-0.001 0.002-0.001 0.003-0.002s0.003-0.002 0.004-0.004 0.008-0.006 0.011-0.009c0.004-0.003 0.007-0.006 0.011-0.010 0.001-0.001 0.003-0.003 0.004-0.004l0.772-0.772c0.002-0.002 0.003-0.003 0.004-0.005 0.003-0.004 0.007-0.007 0.010-0.011s0.006-0.007 0.008-0.010c0.003-0.003 0.005-0.007 0.007-0.010s0.006-0.008 0.009-0.013c0.002-0.003 0.004-0.006 0.005-0.009 0.003-0.005 0.005-0.009 0.008-0.014 0.001-0.003 0.003-0.006 0.004-0.009 0.002-0.005 0.004-0.010 0.006-0.015 0.001-0.003 0.003-0.007 0.004-0.011 0.002-0.005 0.003-0.009 0.004-0.014s0.002-0.008 0.003-0.013c0.001-0.004 0.002-0.008 0.003-0.012s0.001-0.010 0.002-0.014c0-0.004 0.001-0.008 0.001-0.011 0-0.005 0.001-0.010 0.001-0.015 0-0.004 0-0.008 0-0.012s-0-0.009-0.001-0.014z"></path>
</svg>
