<!-- Generated by IcoMoon.io -->
<svg version="1.1" xmlns="http://www.w3.org/2000/svg" width="32" height="32" viewBox="0 0 32 32">
<title>beach</title>
<path fill="none" stroke="#fff" stroke-linejoin="miter" stroke-linecap="butt" stroke-miterlimit="4" stroke-width="0.3765" d="M31.812 16c0 8.733-7.079 15.812-15.812 15.812s-15.812-7.079-15.812-15.812c0-8.733 7.079-15.812 15.812-15.812s15.812 7.079 15.812 15.812z"></path>
<path fill="#fff" d="M17.536 18.515c0 1.87 1.516 3.386 3.386 3.386s3.386-1.516 3.386-3.386c0-1.87-1.516-3.386-3.386-3.386-1.869 0.002-3.384 1.517-3.386 3.386zM20.922 15.806c1.496 0 2.709 1.213 2.709 2.709s-1.213 2.709-2.709 2.709c-1.496 0-2.709-1.213-2.709-2.709 0.002-1.495 1.213-2.707 2.709-2.709z"></path>
<path fill="#fff" d="M18.987 25.287h3.87v0.677h-3.87v-0.677z"></path>
<path fill="#fff" d="M17.536 23.932h6.772v0.677h-6.772v-0.677z"></path>
<path fill="#fff" d="M10.087 23.932h0.677v0.677h-0.677v-0.677z"></path>
<path fill="#fff" d="M8.056 24.61h0.677v0.677h-0.677v-0.677z"></path>
<path fill="#fff" d="M10.121 22.027c1.768-3.079 2.877-6.492 3.258-10.022l3.149 3.13c0.063 0.063 0.148 0.098 0.237 0.098 0.018 0 0.037-0.001 0.055-0.004 0.107-0.017 0.2-0.085 0.248-0.183 0.638-1.274 0.388-2.814-0.62-3.82l-0.277-0.277h2.382c0.187 0 0.339-0.151 0.339-0.338 0-0.037-0.006-0.073-0.017-0.108-0.45-1.352-1.715-2.264-3.14-2.263h-0.44l1.691-1.701c0.132-0.132 0.131-0.347-0.001-0.479-0.026-0.026-0.055-0.047-0.088-0.063-1.275-0.639-2.815-0.389-3.822 0.62l-0.323 0.323c-0.105 0.106-0.203 0.219-0.294 0.339-0.089-0.119-0.186-0.232-0.291-0.339l-0.323-0.323c-1.006-1.008-2.546-1.258-3.82-0.62-0.167 0.084-0.235 0.287-0.152 0.454 0.016 0.032 0.037 0.062 0.063 0.088l1.693 1.701h-0.444c-1.425-0.001-2.691 0.911-3.14 2.263-0.059 0.177 0.036 0.369 0.214 0.428 0.035 0.012 0.071 0.017 0.108 0.017h2.379l-0.277 0.277c-1.009 1.007-1.259 2.546-0.62 3.82 0.049 0.097 0.141 0.165 0.248 0.183 0.018 0.003 0.036 0.005 0.055 0.004 0.089 0 0.175-0.035 0.239-0.098l2.932-2.915c-0.363 3.245-1.585 6.334-3.54 8.948-0.455-0.12-0.917-0.214-1.382-0.282l-0.212-0.021-0.068 0.674 0.197 0.019c0.339 0.049 0.675 0.117 1.010 0.194-0.068 0.085-0.136 0.171-0.206 0.255l0.519 0.434c2.602-3.094 4.153-6.934 4.43-10.967l0.39-0.387 0.292 0.29c-0.356 4.313-1.836 8.458-4.294 12.020l0.555 0.388c0.266-0.38 0.52-0.774 0.766-1.176 1.584 0.758 2.982 1.853 4.097 3.21l0.524-0.429c-0.659-0.801-1.414-1.519-2.248-2.135h14.191v-0.677h-15.194c-0.332-0.2-0.675-0.382-1.024-0.551zM16.64 14.292l-3.577-3.557c0.915-0.273 1.906-0.025 2.585 0.647l0.323 0.323c0.677 0.676 0.934 1.667 0.669 2.587zM18.035 10.272h-2.804c-0.653-0.311-1.39-0.399-2.097-0.25 0.493-0.693 1.29-1.104 2.14-1.104h0.457c0.957-0.002 1.839 0.517 2.303 1.354zM13.227 7.42l0.323-0.323c0.677-0.678 1.668-0.934 2.588-0.669l-2.007 2.019c-0.651 0.24-1.211 0.679-1.598 1.255-0.158-0.828 0.102-1.681 0.695-2.281h-0.001zM11.362 7.097l0.323 0.323c0.151 0.154 0.282 0.326 0.389 0.513-0.153 0.357-0.241 0.738-0.259 1.126-0.304-0.266-0.654-0.473-1.033-0.612l-2.008-2.019c0.92-0.264 1.911-0.008 2.587 0.669h-0.001zM9.18 8.918h0.457c0.851-0.001 1.649 0.411 2.143 1.104-0.707-0.148-1.444-0.060-2.096 0.251h-2.805c0.464-0.837 1.345-1.355 2.302-1.354h-0.001zM8.274 14.292c-0.264-0.92-0.008-1.911 0.669-2.587l0.323-0.323c0.487-0.486 1.148-0.758 1.836-0.756 0.254 0 0.507 0.036 0.75 0.108l-3.579 3.558z"></path>
</svg>
