<!-- Generated by IcoMoon.io -->
<svg version="1.1" xmlns="http://www.w3.org/2000/svg" width="32" height="32" viewBox="0 0 32 32">
<title>car</title>
<path fill="none" stroke="#fff" stroke-linejoin="miter" stroke-linecap="butt" stroke-miterlimit="4" stroke-width="0.3765" d="M31.812 16c0 8.733-7.079 15.812-15.812 15.812s-15.812-7.079-15.812-15.812c0-8.733 7.079-15.812 15.812-15.812s15.812 7.079 15.812 15.812z"></path>
<path fill="#fff" d="M23.972 21.208h-1.641c-0.065 0-0.127-0.026-0.173-0.072s-0.072-0.108-0.072-0.173c0-0.065 0.026-0.127 0.072-0.173s0.108-0.072 0.173-0.072h1.641c0.043-0 0.085-0.017 0.116-0.048s0.048-0.072 0.048-0.116v-0.772c-0.001-0.529-0.211-1.036-0.585-1.41s-0.881-0.584-1.41-0.585h-14.122v2.483c0 0.118 0.047 0.232 0.131 0.316s0.197 0.131 0.316 0.131h1.038c0.065 0 0.127 0.026 0.173 0.072s0.072 0.108 0.072 0.173c0 0.065-0.026 0.127-0.072 0.173s-0.108 0.072-0.173 0.072h-1.038c-0.248-0-0.486-0.099-0.661-0.274s-0.274-0.413-0.274-0.661v-2.728c0-0.065 0.026-0.127 0.072-0.173s0.108-0.072 0.173-0.072h14.366c0.658 0.001 1.29 0.263 1.755 0.728s0.727 1.097 0.728 1.755v0.772c-0 0.173-0.069 0.339-0.191 0.461s-0.288 0.191-0.461 0.191z"></path>
<path fill="#fff" d="M19.332 21.208h-6.757c-0.065 0-0.127-0.026-0.173-0.072s-0.072-0.108-0.072-0.173c0-0.065 0.026-0.127 0.072-0.173s0.108-0.072 0.173-0.072h6.757c0.065 0 0.127 0.026 0.173 0.072s0.072 0.108 0.072 0.173c0 0.065-0.026 0.127-0.072 0.173s-0.108 0.072-0.173 0.072z"></path>
<path fill="#fff" d="M7.774 17.791c-0.018-0-0.036-0.002-0.053-0.006-0.031-0.007-0.061-0.020-0.087-0.038s-0.049-0.042-0.066-0.069-0.029-0.057-0.035-0.089c-0.006-0.032-0.005-0.064 0.002-0.095 0.312-1.215 1.034-2.284 2.043-3.028 0.322-0.222 0.703-0.34 1.094-0.338h6.167c0.332 0 0.661 0.069 0.965 0.203s0.578 0.328 0.803 0.572l2.288 2.479c0.023 0.023 0.042 0.051 0.054 0.081s0.018 0.063 0.018 0.096c-0.001 0.033-0.008 0.065-0.021 0.095s-0.033 0.057-0.057 0.079c-0.024 0.022-0.053 0.040-0.084 0.051s-0.064 0.016-0.097 0.014c-0.033-0.002-0.065-0.011-0.094-0.025s-0.056-0.035-0.077-0.060l-2.287-2.478c-0.18-0.194-0.398-0.349-0.64-0.456s-0.504-0.161-0.769-0.162h-6.168c-0.292-0.001-0.577 0.087-0.817 0.253-1.444 0.997-1.84 2.713-1.843 2.731-0.012 0.054-0.042 0.103-0.086 0.138s-0.097 0.054-0.153 0.054z"></path>
<path fill="#fff" d="M15.344 17.791c-0.058-0-0.115-0.021-0.159-0.059s-0.073-0.090-0.082-0.148l-0.488-3.175c-0.006-0.032-0.006-0.065 0.001-0.098s0.020-0.062 0.039-0.089c0.019-0.027 0.043-0.049 0.071-0.067s0.059-0.029 0.092-0.034c0.032-0.005 0.066-0.003 0.097 0.005s0.062 0.023 0.088 0.043c0.026 0.020 0.048 0.045 0.064 0.074s0.026 0.060 0.030 0.093l0.488 3.175c0.005 0.035 0.003 0.070-0.007 0.104s-0.027 0.065-0.050 0.092-0.051 0.048-0.083 0.063c-0.032 0.015-0.067 0.022-0.102 0.022z"></path>
<path fill="#fff" d="M10.704 17.791c-0.024 0-0.049-0.004-0.072-0.011-0.062-0.019-0.114-0.062-0.144-0.119s-0.037-0.124-0.018-0.186l0.977-3.175c0.009-0.031 0.025-0.059 0.045-0.084s0.046-0.045 0.074-0.060c0.028-0.015 0.059-0.024 0.091-0.027s0.064 0 0.095 0.010c0.031 0.009 0.059 0.025 0.084 0.045s0.045 0.046 0.060 0.074c0.015 0.028 0.024 0.059 0.027 0.091s-0 0.064-0.010 0.095l-0.977 3.175c-0.015 0.050-0.046 0.094-0.088 0.125s-0.093 0.048-0.145 0.048z"></path>
<path fill="#fff" d="M20.833 22.781c-0.345 0-0.683-0.102-0.97-0.294s-0.511-0.464-0.643-0.783c-0.132-0.319-0.167-0.67-0.099-1.008s0.234-0.65 0.478-0.894c0.244-0.244 0.555-0.41 0.894-0.478s0.689-0.033 1.008 0.099c0.319 0.132 0.591 0.356 0.783 0.643s0.294 0.624 0.294 0.97c-0.001 0.463-0.185 0.906-0.512 1.233s-0.771 0.511-1.233 0.512zM20.833 19.779c-0.249-0-0.492 0.074-0.698 0.212s-0.368 0.334-0.463 0.564c-0.095 0.23-0.12 0.482-0.072 0.726s0.168 0.468 0.344 0.644c0.176 0.176 0.4 0.296 0.644 0.344s0.497 0.024 0.726-0.072c0.23-0.095 0.426-0.256 0.564-0.463s0.212-0.45 0.212-0.698c-0-0.333-0.133-0.653-0.368-0.888s-0.555-0.368-0.888-0.369v0z"></path>
<path fill="#fff" d="M20.833 21.856c-0.162 0-0.321-0.048-0.456-0.138s-0.24-0.218-0.302-0.368c-0.062-0.15-0.078-0.315-0.047-0.474s0.11-0.305 0.224-0.42c0.115-0.115 0.261-0.193 0.42-0.225s0.324-0.015 0.474 0.047 0.278 0.167 0.368 0.302c0.090 0.135 0.138 0.294 0.138 0.456-0 0.218-0.087 0.426-0.24 0.58s-0.362 0.24-0.58 0.241zM20.833 20.703c-0.066-0-0.13 0.019-0.185 0.056s-0.097 0.088-0.122 0.149c-0.025 0.061-0.032 0.127-0.019 0.192s0.044 0.124 0.091 0.17c0.046 0.046 0.106 0.078 0.17 0.091s0.131 0.006 0.192-0.019c0.061-0.025 0.113-0.068 0.149-0.122s0.056-0.119 0.056-0.185c-0-0.088-0.035-0.172-0.097-0.235s-0.147-0.097-0.235-0.097z"></path>
<path fill="#fff" d="M11.039 21.856c-0.162 0-0.321-0.048-0.456-0.138s-0.24-0.218-0.302-0.368c-0.062-0.15-0.078-0.315-0.047-0.474s0.11-0.305 0.225-0.42 0.261-0.193 0.42-0.225c0.159-0.032 0.324-0.015 0.474 0.047s0.278 0.167 0.368 0.302c0.090 0.135 0.138 0.294 0.138 0.456-0 0.218-0.087 0.426-0.241 0.58s-0.362 0.24-0.58 0.241zM11.039 20.703c-0.066 0-0.13 0.020-0.185 0.056s-0.097 0.088-0.122 0.149c-0.025 0.061-0.032 0.128-0.019 0.192s0.044 0.124 0.091 0.17c0.046 0.046 0.106 0.078 0.17 0.091s0.131 0.006 0.192-0.019 0.113-0.068 0.149-0.122c0.036-0.055 0.056-0.119 0.056-0.185-0-0.088-0.035-0.172-0.097-0.235s-0.147-0.097-0.235-0.097z"></path>
<path fill="#fff" d="M11.039 22.817c-0.353 0-0.697-0.105-0.99-0.3s-0.522-0.474-0.657-0.8c-0.135-0.326-0.17-0.684-0.101-1.030s0.239-0.663 0.488-0.913c0.249-0.249 0.567-0.419 0.913-0.488s0.704-0.033 1.030 0.101c0.326 0.135 0.604 0.363 0.8 0.657s0.3 0.638 0.3 0.99c-0 0.473-0.188 0.926-0.522 1.26s-0.787 0.522-1.26 0.522zM11.039 19.742c-0.256 0-0.506 0.076-0.719 0.218s-0.379 0.344-0.477 0.581-0.124 0.497-0.074 0.748c0.050 0.251 0.173 0.482 0.354 0.663s0.412 0.304 0.663 0.354c0.251 0.050 0.511 0.024 0.748-0.074s0.439-0.264 0.581-0.477c0.142-0.213 0.218-0.463 0.218-0.719 0-0.17-0.033-0.338-0.098-0.495s-0.16-0.3-0.281-0.42c-0.12-0.12-0.263-0.216-0.42-0.281s-0.325-0.099-0.495-0.099z"></path>
<path fill="#fff" d="M17.298 19.012h-0.488c-0.065 0-0.127-0.026-0.173-0.072s-0.072-0.108-0.072-0.173c0-0.065 0.026-0.127 0.072-0.173s0.108-0.072 0.173-0.072h0.488c0.065 0 0.127 0.026 0.173 0.072s0.072 0.108 0.072 0.173c0 0.065-0.026 0.127-0.072 0.173s-0.108 0.072-0.173 0.072z"></path>
<path fill="#fff" d="M14.489 19.012h-0.488c-0.065 0-0.127-0.026-0.173-0.072s-0.072-0.108-0.072-0.173c0-0.065 0.026-0.127 0.072-0.173s0.108-0.072 0.173-0.072h0.488c0.065 0 0.127 0.026 0.173 0.072s0.072 0.108 0.072 0.173c0 0.065-0.026 0.127-0.072 0.173s-0.108 0.072-0.173 0.072z"></path>
<path fill="#fff" d="M15.263 14.616h-3.022c-0.065 0-0.127-0.026-0.173-0.072s-0.072-0.108-0.072-0.173v-0.977c0-0.065 0.026-0.127 0.072-0.173s0.108-0.072 0.173-0.072h3.022c0.065 0 0.127 0.026 0.173 0.072s0.072 0.108 0.072 0.173v0.977c0 0.065-0.026 0.127-0.072 0.173s-0.108 0.072-0.173 0.072zM12.485 14.128h2.534v-0.488h-2.534v0.488z"></path>
<path fill="#fff" d="M17.455 13.64h-7.407c-0.065 0-0.127-0.026-0.173-0.072s-0.072-0.108-0.072-0.173 0.026-0.127 0.072-0.173c0.046-0.046 0.108-0.072 0.173-0.072h7.407c0.065 0 0.127 0.026 0.173 0.072s0.072 0.108 0.072 0.173-0.026 0.127-0.072 0.173c-0.046 0.046-0.108 0.072-0.173 0.072z"></path>
<path fill="#fff" d="M16.858 13.639h-4.425c-0.065 0-0.127-0.026-0.173-0.072s-0.072-0.108-0.072-0.173 0.026-0.127 0.072-0.173c0.046-0.046 0.108-0.072 0.173-0.072h4.181v-3.106c0-0.038-0.015-0.075-0.042-0.102s-0.063-0.042-0.102-0.042h-3.65c-0.038 0-0.075 0.015-0.101 0.042s-0.042 0.063-0.042 0.101v0.894c0 0.065-0.026 0.127-0.072 0.173s-0.108 0.072-0.173 0.072c-0.065 0-0.127-0.026-0.173-0.072s-0.072-0.108-0.072-0.173v-0.894c0-0.168 0.067-0.328 0.185-0.447s0.279-0.185 0.447-0.185h3.649c0.168 0 0.328 0.067 0.447 0.185s0.185 0.279 0.186 0.447v3.351c0 0.065-0.026 0.127-0.072 0.173s-0.108 0.072-0.173 0.072z"></path>
<path fill="#fff" d="M14.645 13.64h-3.845c-0.065 0-0.127-0.026-0.173-0.072s-0.072-0.108-0.072-0.173v-2.071c0-0.168 0.067-0.328 0.185-0.447s0.279-0.185 0.447-0.186h3.069c0.168 0 0.328 0.067 0.447 0.185s0.185 0.279 0.185 0.447v2.071c0 0.065-0.026 0.127-0.072 0.173s-0.108 0.072-0.173 0.072zM11.045 13.151h3.357v-1.826c-0-0.038-0.015-0.075-0.042-0.102s-0.064-0.042-0.102-0.042h-3.069c-0.038 0-0.075 0.015-0.102 0.042s-0.042 0.064-0.042 0.102v1.826z"></path>
</svg>
