<!-- Generated by IcoMoon.io -->
<svg version="1.1" xmlns="http://www.w3.org/2000/svg" width="32" height="32" viewBox="0 0 32 32">
<title>city</title>
<path fill="none" stroke="#fff" stroke-linejoin="miter" stroke-linecap="butt" stroke-miterlimit="4" stroke-width="0.3765" d="M31.812 16c0 8.733-7.079 15.812-15.812 15.812s-15.812-7.079-15.812-15.812c0-8.733 7.079-15.812 15.812-15.812s15.812 7.079 15.812 15.812z"></path>
<path fill="#fff" d="M23.341 23.906v-10.729c0-0.13-0.088-0.243-0.214-0.274l-5.433-1.358v-1.473c0-0.128-0.086-0.24-0.21-0.273l-8.471-2.259c-0.085-0.023-0.175-0.005-0.245 0.049s-0.11 0.136-0.11 0.224v16.094h-1.129v0.565h16.941v-0.565h-1.129zM9.224 8.179l7.906 2.108v13.619h-1.412v-3.106c0-0.156-0.126-0.282-0.282-0.282h-4.518c-0.156 0-0.282 0.126-0.282 0.282v3.106h-1.412v-15.727zM11.2 21.082h1.694v2.824h-1.694v-2.824zM13.459 23.906v-2.824h1.694v2.824h-1.694zM19.388 23.906v-2.259h1.694v2.259h-1.694zM21.647 23.906v-2.541c0-0.156-0.126-0.282-0.282-0.282h-2.259c-0.156 0-0.282 0.126-0.282 0.282v2.541h-1.129v-11.78l5.082 1.271v10.509h-1.129z"></path>
<path fill="#fff" d="M11.2 19.389h1.129c0.156 0 0.282-0.126 0.282-0.282v-1.129c0-0.156-0.126-0.282-0.282-0.282h-1.129c-0.156 0-0.282 0.126-0.282 0.282v1.129c0 0.156 0.126 0.282 0.282 0.282zM11.482 18.259h0.565v0.565h-0.565v-0.565z"></path>
<path fill="#fff" d="M14.024 19.389h1.129c0.156 0 0.282-0.126 0.282-0.282v-1.129c0-0.156-0.126-0.282-0.282-0.282h-1.129c-0.156 0-0.282 0.126-0.282 0.282v1.129c0 0.156 0.126 0.282 0.282 0.282zM14.306 18.259h0.565v0.565h-0.565v-0.565z"></path>
<path fill="#fff" d="M19.671 18.259h-1.129c-0.156 0-0.282 0.126-0.282 0.282v1.129c0 0.156 0.126 0.282 0.282 0.282h1.129c0.156 0 0.282-0.126 0.282-0.282v-1.129c0-0.156-0.126-0.282-0.282-0.282zM19.388 19.389h-0.565v-0.565h0.565v0.565z"></path>
<path fill="#fff" d="M21.929 18.259h-1.129c-0.156 0-0.282 0.126-0.282 0.282v1.129c0 0.156 0.126 0.282 0.282 0.282h1.129c0.156 0 0.282-0.126 0.282-0.282v-1.129c0-0.156-0.126-0.282-0.282-0.282zM21.647 19.389h-0.565v-0.565h0.565v0.565z"></path>
<path fill="#fff" d="M19.671 16h-1.129c-0.156 0-0.282 0.126-0.282 0.282v1.129c0 0.156 0.126 0.282 0.282 0.282h1.129c0.156 0 0.282-0.126 0.282-0.282v-1.129c0-0.156-0.126-0.282-0.282-0.282zM19.388 17.13h-0.565v-0.565h0.565v0.565z"></path>
<path fill="#fff" d="M21.929 16h-1.129c-0.156 0-0.282 0.126-0.282 0.282v1.129c0 0.156 0.126 0.282 0.282 0.282h1.129c0.156 0 0.282-0.126 0.282-0.282v-1.129c0-0.156-0.126-0.282-0.282-0.282zM21.647 17.13h-0.565v-0.565h0.565v0.565z"></path>
<path fill="#fff" d="M19.671 13.742h-1.129c-0.156 0-0.282 0.126-0.282 0.282v1.129c0 0.156 0.126 0.282 0.282 0.282h1.129c0.156 0 0.282-0.126 0.282-0.282v-1.129c0-0.156-0.126-0.282-0.282-0.282zM19.388 14.871h-0.565v-0.565h0.565v0.565z"></path>
<path fill="#fff" d="M21.929 13.742h-1.129c-0.156 0-0.282 0.126-0.282 0.282v1.129c0 0.156 0.126 0.282 0.282 0.282h1.129c0.156 0 0.282-0.126 0.282-0.282v-1.129c0-0.156-0.126-0.282-0.282-0.282zM21.647 14.871h-0.565v-0.565h0.565v0.565z"></path>
<path fill="#fff" d="M11.2 17.13h1.129c0.156 0 0.282-0.126 0.282-0.282v-1.129c0-0.156-0.126-0.282-0.282-0.282h-1.129c-0.156 0-0.282 0.126-0.282 0.282v1.129c0 0.156 0.126 0.282 0.282 0.282zM11.482 16h0.565v0.565h-0.565v-0.565z"></path>
<path fill="#fff" d="M14.024 17.13h1.129c0.156 0 0.282-0.126 0.282-0.282v-1.129c0-0.156-0.126-0.282-0.282-0.282h-1.129c-0.156 0-0.282 0.126-0.282 0.282v1.129c0 0.156 0.126 0.282 0.282 0.282zM14.306 16h0.565v0.565h-0.565v-0.565z"></path>
<path fill="#fff" d="M11.2 14.871h1.129c0.156 0 0.282-0.126 0.282-0.282v-1.129c0-0.156-0.126-0.282-0.282-0.282h-1.129c-0.156 0-0.282 0.126-0.282 0.282v1.129c0 0.156 0.126 0.282 0.282 0.282zM11.482 13.742h0.565v0.565h-0.565v-0.565z"></path>
<path fill="#fff" d="M14.024 14.871h1.129c0.156 0 0.282-0.126 0.282-0.282v-1.129c0-0.156-0.126-0.282-0.282-0.282h-1.129c-0.156 0-0.282 0.126-0.282 0.282v1.129c0 0.156 0.126 0.282 0.282 0.282zM14.306 13.742h0.565v0.565h-0.565v-0.565z"></path>
<path fill="#fff" d="M11.2 12.612h1.129c0.156 0 0.282-0.126 0.282-0.282v-1.129c0-0.156-0.126-0.282-0.282-0.282h-1.129c-0.156 0-0.282 0.126-0.282 0.282v1.129c0 0.156 0.126 0.282 0.282 0.282zM11.482 11.483h0.565v0.565h-0.565v-0.565z"></path>
<path fill="#fff" d="M14.024 12.612h1.129c0.156 0 0.282-0.126 0.282-0.282v-1.129c0-0.156-0.126-0.282-0.282-0.282h-1.129c-0.156 0-0.282 0.126-0.282 0.282v1.129c0 0.156 0.126 0.282 0.282 0.282zM14.306 11.483h0.565v0.565h-0.565v-0.565z"></path>
</svg>
