<!-- Generated by IcoMoon.io -->
<svg version="1.1" xmlns="http://www.w3.org/2000/svg" width="34" height="32" viewBox="0 0 34 32">
<title>logo</title>
<path fill="#fff" d="M33.711 5.619l-1.136-1.657-0.955-0.827-0.009-0.677-0.453-0.324-0.568 1.209-0.859-0.557-0.297 0.302 0.334 0.67-4.93 4.701-7.765 3.783-2.329 0.516-0.548 0.281-1.447 1.87-0.601 2.024-0.141 1.119 0.312 0.668 0.033-0.244 0.555-2.019-0.53 4.077-0.601 1.837-1.109 5.593h1.007l-0.304-0.506 0.529-2.672 1.997-3.989-0.367 1.499 1.561 5.668h1.061l-0.444-0.565-0.745-2.221-0.315-3.335 1.144-2.635 0.685-0.668 3.174 0.005 0.561 0.56-1.026 7.641 0.041 1.218h1.010l-0.372-0.56 0.139-2.909 1.55-5.326 0.19 0.001 3.401 8.793h1.021l-0.519-0.53-0.925-2.5-1.45-6.309 0.384-3.237-0.188-0.903 0.177-0.635 6.598-7.491 1.005-0.196 2.538 0.924 0.18-0.716-0.255-0.751z"></path>
<path fill="none" stroke="#fff" stroke-linejoin="miter" stroke-linecap="butt" stroke-miterlimit="4" stroke-width="0.5333" d="M31.733 16c0 8.689-7.044 15.733-15.733 15.733s-15.733-7.044-15.733-15.733c0-8.689 7.044-15.733 15.733-15.733s15.733 7.044 15.733 15.733z"></path>
</svg>
