<!-- Generated by IcoMoon.io -->
<svg version="1.1" xmlns="http://www.w3.org/2000/svg" width="32" height="32" viewBox="0 0 32 32">
<title>phone-id</title>
<path fill="none" stroke="#fff" stroke-linejoin="miter" stroke-linecap="butt" stroke-miterlimit="4" stroke-width="0.3765" d="M31.812 16c0 8.733-7.079 15.812-15.812 15.812s-15.812-7.079-15.812-15.812c0-8.733 7.079-15.812 15.812-15.812s15.812 7.079 15.812 15.812z"></path>
<path fill="#fff" d="M11.388 8.518c0-0.112 0.045-0.22 0.124-0.299s0.187-0.124 0.299-0.124h7.624c0.112 0 0.22 0.045 0.299 0.124s0.124 0.187 0.124 0.299v1.553h0.565v-1.553c-0-0.262-0.105-0.513-0.29-0.698s-0.436-0.289-0.698-0.29h-7.624c-0.262 0-0.513 0.104-0.698 0.29s-0.289 0.436-0.29 0.698v1.553h0.565v-1.553z"></path>
<path fill="#fff" d="M19.859 22.212h-8.471v-0.847h-0.565v2.118c0 0.262 0.104 0.513 0.29 0.698s0.436 0.289 0.698 0.29h7.624c0.262-0 0.513-0.105 0.698-0.29s0.289-0.436 0.29-0.698v-2.118h-0.565v0.847zM19.435 23.906h-7.624c-0.112-0-0.22-0.045-0.299-0.124s-0.124-0.187-0.124-0.299v-0.706h8.471v0.706c-0 0.112-0.045 0.22-0.124 0.299s-0.187 0.124-0.299 0.124z"></path>
<path fill="#fff" d="M14.494 8.941h2.259v0.565h-2.259v-0.565z"></path>
<path fill="#fff" d="M23.529 20.165c0 0.019-0.007 0.037-0.021 0.050s-0.031 0.021-0.050 0.021h-15.671c-0.019 0-0.037-0.007-0.050-0.021s-0.021-0.031-0.021-0.050v-7.271h-0.565v7.271c0 0.168 0.067 0.33 0.186 0.449s0.281 0.186 0.449 0.186h15.671c0.168-0 0.33-0.067 0.449-0.186s0.186-0.281 0.186-0.449v-2.188h-0.565v2.188z"></path>
<path fill="#fff" d="M23.459 10.635h-15.671c-0.168 0-0.33 0.067-0.449 0.186s-0.186 0.281-0.186 0.449v1.059h0.565v-1.059c0-0.019 0.007-0.037 0.021-0.050s0.031-0.021 0.050-0.021h15.671c0.019 0 0.037 0.007 0.050 0.021s0.021 0.031 0.021 0.050v6.141h0.565v-6.141c-0-0.168-0.067-0.33-0.186-0.449s-0.281-0.186-0.449-0.186z"></path>
<path fill="#fff" d="M17.6 17.976h0.565v1.129h-0.565v-1.129z"></path>
<path fill="#fff" d="M16.471 17.976h0.565v1.129h-0.565v-1.129z"></path>
<path fill="#fff" d="M18.729 17.976h1.129v1.129h-1.129v-1.129z"></path>
<path fill="#fff" d="M20.424 17.976h0.565v1.129h-0.565v-1.129z"></path>
<path fill="#fff" d="M21.553 17.976h1.129v1.129h-1.129v-1.129z"></path>
<path fill="#fff" d="M16.471 15.153h3.953v0.565h-3.953v-0.565z"></path>
<path fill="#fff" d="M20.988 15.153h1.694v0.565h-1.694v-0.565z"></path>
<path fill="#fff" d="M18.729 16.282h3.953v0.565h-3.953v-0.565z"></path>
<path fill="#fff" d="M16.471 16.282h1.694v0.565h-1.694v-0.565z"></path>
<path fill="#fff" d="M16.471 14.024h1.129v0.565h-1.129v-0.565z"></path>
<path fill="#fff" d="M18.165 14.024h2.259v0.565h-2.259v-0.565z"></path>
<path fill="#fff" d="M19.859 12.329h0.565v0.565h-0.565v-0.565z"></path>
<path fill="#fff" d="M20.988 12.329h0.565v0.565h-0.565v-0.565z"></path>
<path fill="#fff" d="M22.118 12.329h0.565v0.565h-0.565v-0.565z"></path>
<path fill="#fff" d="M16.471 12.894h2.541v0.565h-2.541v-0.565z"></path>
<path fill="#fff" d="M15.059 19.671c0.075 0 0.147-0.030 0.2-0.083s0.083-0.125 0.083-0.2v-7.341c0-0.075-0.030-0.147-0.083-0.2s-0.125-0.083-0.2-0.083h-6.212c-0.075 0-0.147 0.030-0.2 0.083s-0.083 0.125-0.083 0.2v7.341c0 0.075 0.030 0.147 0.083 0.2s0.125 0.083 0.2 0.083h6.212zM9.129 18.428c0.001-0.158 0.049-0.312 0.139-0.442s0.217-0.229 0.365-0.285l1.374-0.515 0.155 0.207c0.092 0.123 0.211 0.222 0.349 0.291s0.289 0.104 0.442 0.104 0.305-0.036 0.442-0.104c0.137-0.069 0.257-0.168 0.349-0.291l0.155-0.207 1.374 0.515c0.148 0.056 0.275 0.155 0.365 0.285s0.138 0.284 0.139 0.442v0.678h-5.647v-0.678zM12.485 16.796l-0.194 0.258c-0.039 0.053-0.091 0.095-0.149 0.125s-0.124 0.045-0.189 0.045c-0.066 0-0.131-0.015-0.189-0.045s-0.11-0.072-0.149-0.125l-0.194-0.258 0.171-0.514h0.722l0.171 0.514zM12.8 15.294c-0 0.112-0.045 0.22-0.124 0.299s-0.187 0.124-0.299 0.124h-0.847c-0.112-0-0.22-0.045-0.299-0.124s-0.124-0.187-0.124-0.299v-1.412c0-0.112 0.045-0.22 0.124-0.299s0.187-0.124 0.299-0.124h0.847c0.112 0 0.22 0.045 0.299 0.124s0.124 0.187 0.124 0.299v1.412zM14.776 12.329v5.006c-0.094-0.067-0.197-0.122-0.306-0.163l-1.446-0.542-0.159-0.478c0.151-0.086 0.277-0.211 0.365-0.362s0.134-0.322 0.134-0.496v-1.412c-0-0.262-0.104-0.513-0.29-0.698s-0.436-0.289-0.698-0.29h-0.847c-0.262 0-0.513 0.104-0.698 0.29s-0.289 0.436-0.29 0.698v1.412c0 0.174 0.046 0.345 0.134 0.496s0.213 0.276 0.365 0.362l-0.159 0.478-1.446 0.542c-0.109 0.041-0.211 0.096-0.306 0.163v-5.006h5.647z"></path>
</svg>
