<!-- Generated by IcoMoon.io -->
<svg version="1.1" xmlns="http://www.w3.org/2000/svg" width="32" height="32" viewBox="0 0 32 32">
<title>planet</title>
<path fill="none" stroke="#fff" stroke-linejoin="miter" stroke-linecap="butt" stroke-miterlimit="4" stroke-width="0.3765" d="M31.812 16c0 8.733-7.079 15.812-15.812 15.812s-15.812-7.079-15.812-15.812c0-8.733 7.079-15.812 15.812-15.812s15.812 7.079 15.812 15.812z"></path>
<path fill="#fff" d="M22.617 16.191c0-0.388-0.033-0.775-0.1-1.158l-0.55 0.096c0.41 2.349-0.575 4.723-2.528 6.091l-0.45-0.735c-0.152-0.246-0.166-0.554-0.035-0.813l0.127-0.254c0.047-0.095 0.144-0.155 0.25-0.154h0.394c0.343 0.001 0.652-0.208 0.778-0.527l0.378-0.946c0.040-0.099 0.060-0.205 0.060-0.311v-0.615c0-0.148-0.058-0.291-0.164-0.395l-0.335-0.335c-0.17-0.17-0.43-0.212-0.645-0.105l-0.688 0.344c-0.079 0.039-0.171 0.039-0.25 0l-1.118-0.559c-0.094-0.047-0.154-0.144-0.154-0.249v-0.772c0-0.309-0.25-0.559-0.559-0.559-0.154 0-0.279-0.125-0.279-0.279v-0.279c0-0.088 0.041-0.171 0.112-0.223l0.894-0.671-0.335-0.447-0.894 0.671c-0.211 0.159-0.335 0.407-0.335 0.671v0.279c0 0.463 0.375 0.838 0.838 0.838v0.772c-0.001 0.318 0.179 0.608 0.463 0.75l1.118 0.559c0.236 0.117 0.514 0.117 0.75 0l0.688-0.344 0.335 0.335v0.615c0 0.035-0.007 0.071-0.020 0.104l-0.378 0.946c-0.042 0.106-0.145 0.176-0.259 0.176h-0.394c-0.318-0.001-0.608 0.179-0.75 0.463l-0.127 0.254c-0.217 0.431-0.195 0.944 0.058 1.355l0.455 0.744c-1.721 0.991-3.816 1.085-5.62 0.254l0.343-0.229c0.046-0.031 0.099-0.047 0.154-0.047h0.717c0.223 0.001 0.436-0.088 0.593-0.246l0.79-0.79c0.158-0.157 0.246-0.37 0.246-0.593v-1.29c0-0.151-0.041-0.3-0.119-0.43l-0.597-0.998c-0.153-0.249-0.424-0.402-0.716-0.403h-0.784c-0.281-0-0.543 0.14-0.698 0.373l-0.309 0.465h-0.689c-0.309 0-0.559 0.25-0.559 0.559v0.534c0 0.095-0.048 0.183-0.128 0.235l-0.872 0.562c-0.625-0.982-0.957-2.122-0.956-3.286 0-0.094 0.003-0.187 0.007-0.279h0.486c0.106-0 0.203 0.060 0.25 0.155l0.327 0.656c0.095 0.189 0.288 0.308 0.5 0.307h0.295c0.176 0 0.341-0.082 0.447-0.222s0.14-0.322 0.091-0.49l-0.356-1.243h0.551c0.19 0 0.375-0.065 0.524-0.184l0.912-0.73c0.294-0.236 0.395-0.638 0.247-0.985l-0.478-1.118c-0.055-0.129-0.007-0.278 0.113-0.35l0.704-0.422c0.255-0.154 0.41-0.431 0.407-0.729l-0.005-0.409c0.901-0.169 1.829-0.134 2.715 0.102l0.143-0.539c-2.775-0.742-5.714 0.366-7.309 2.754s-1.491 5.528 0.258 7.807c1.749 2.279 4.755 3.19 7.475 2.267s4.55-3.476 4.55-6.349zM14.228 10.28l0.003 0.284c0.001 0.099-0.050 0.192-0.136 0.243l-0.704 0.422c-0.358 0.217-0.503 0.664-0.339 1.049l0.478 1.118c0.050 0.115 0.016 0.25-0.082 0.328l-0.912 0.729c-0.050 0.039-0.111 0.060-0.174 0.060h-0.551c-0.176-0-0.341 0.082-0.447 0.222s-0.14 0.322-0.091 0.49l0.356 1.243h-0.295l-0.327-0.654c-0.141-0.285-0.432-0.464-0.749-0.463h-0.434c0.336-2.413 2.063-4.401 4.405-5.072zM11.041 19.935l0.854-0.55c0.24-0.154 0.384-0.419 0.384-0.704v-0.534h0.689c0.187 0 0.361-0.093 0.465-0.249l0.31-0.465c0.052-0.078 0.139-0.124 0.232-0.124h0.784c0.097 0 0.187 0.050 0.238 0.132l0.596 0.996c0.026 0.043 0.040 0.093 0.040 0.143v1.29c0 0.074-0.029 0.145-0.082 0.198l-0.79 0.79c-0.052 0.053-0.124 0.082-0.198 0.082h-0.717c-0.166 0-0.328 0.049-0.465 0.141l-0.596 0.398c-0.673-0.4-1.265-0.924-1.743-1.545z"></path>
<path fill="#fff" d="M8.107 16.463l-0.557 0.039c0.013 0.189 0.033 0.381 0.059 0.568l0.554-0.077c-0.024-0.175-0.043-0.356-0.055-0.531z"></path>
<path fill="#fff" d="M8.954 12.329l-0.496-0.257c-0.087 0.168-0.17 0.343-0.245 0.518l0.513 0.222c0.071-0.163 0.148-0.325 0.229-0.483z"></path>
<path fill="#fff" d="M8.254 17.519l-0.547 0.115c0.039 0.186 0.084 0.373 0.136 0.556l0.538-0.152c-0.048-0.171-0.090-0.345-0.127-0.519z"></path>
<path fill="#fff" d="M8.247 14.337l-0.548-0.112c-0.038 0.185-0.070 0.375-0.095 0.564l0.554 0.074c0.024-0.176 0.053-0.353 0.089-0.526z"></path>
<path fill="#fff" d="M9.508 11.416l-0.457-0.322c-0.109 0.155-0.214 0.316-0.313 0.479l0.478 0.29c0.092-0.152 0.191-0.303 0.292-0.447z"></path>
<path fill="#fff" d="M8.531 13.309l-0.527-0.186c-0.063 0.18-0.121 0.363-0.172 0.546l0.539 0.149c0.047-0.17 0.101-0.341 0.16-0.509z"></path>
<path fill="#fff" d="M8.105 15.395l-0.559-0.036c-0.011 0.182-0.017 0.367-0.017 0.553v0.018l0.559-0.018c0-0.173 0.006-0.346 0.017-0.517z"></path>
<path fill="#fff" d="M8.543 18.547l-0.526 0.188c0.064 0.179 0.135 0.358 0.211 0.531l0.512-0.223c-0.071-0.162-0.137-0.328-0.197-0.496z"></path>
<path fill="#fff" d="M10.181 10.586l-0.409-0.38c-0.129 0.14-0.256 0.285-0.375 0.432l0.434 0.352c0.111-0.138 0.229-0.273 0.35-0.404z"></path>
<path fill="#fff" d="M14.822 8.164l-0.078-0.554c-0.187 0.026-0.377 0.059-0.563 0.098l0.115 0.547c0.174-0.037 0.351-0.068 0.527-0.092z"></path>
<path fill="#fff" d="M15.886 8.088l-0.002-0.559c-0.191 0-0.383 0.008-0.571 0.021l0.040 0.559c0.176-0.014 0.354-0.021 0.534-0.021z"></path>
<path fill="#fff" d="M13.776 8.383l-0.152-0.538c-0.182 0.051-0.366 0.11-0.545 0.175l0.189 0.526c0.167-0.060 0.338-0.115 0.508-0.163z"></path>
<path fill="#fff" d="M10.959 9.855l-0.354-0.432c-0.147 0.12-0.292 0.247-0.43 0.377l0.382 0.407c0.129-0.121 0.264-0.24 0.401-0.352z"></path>
<path fill="#fff" d="M12.773 8.743l-0.224-0.512c-0.173 0.076-0.346 0.159-0.515 0.247l0.259 0.495c0.157-0.082 0.319-0.159 0.48-0.23z"></path>
<path fill="#fff" d="M11.828 9.237l-0.292-0.476c-0.162 0.099-0.322 0.206-0.477 0.315l0.324 0.455c0.144-0.102 0.294-0.202 0.445-0.294z"></path>
<path fill="#fff" d="M19.034 23.087l0.224 0.512c0.174-0.076 0.347-0.159 0.515-0.246l-0.257-0.496c-0.158 0.082-0.32 0.159-0.482 0.23z"></path>
<path fill="#fff" d="M21.63 21.25l0.409 0.382c0.13-0.14 0.256-0.284 0.376-0.431l-0.433-0.353c-0.112 0.138-0.231 0.273-0.351 0.402z"></path>
<path fill="#fff" d="M20.851 21.979l0.353 0.433c0.147-0.12 0.292-0.246 0.431-0.376l-0.381-0.408c-0.13 0.122-0.264 0.239-0.402 0.351z"></path>
<path fill="#fff" d="M22.305 20.422l0.456 0.324c0.11-0.155 0.215-0.316 0.314-0.478l-0.477-0.29c-0.093 0.15-0.191 0.301-0.293 0.445z"></path>
<path fill="#fff" d="M19.98 22.595l0.29 0.477c0.162-0.099 0.322-0.204 0.477-0.314l-0.323-0.456c-0.144 0.103-0.294 0.201-0.445 0.293z"></path>
<path fill="#fff" d="M18.030 23.444l0.151 0.538c0.182-0.051 0.366-0.11 0.545-0.173l-0.188-0.526c-0.168 0.061-0.338 0.114-0.508 0.161z"></path>
<path fill="#fff" d="M23.717 16.445l0.557 0.037c0.013-0.189 0.019-0.382 0.019-0.571h-0.559c0 0.179-0.006 0.357-0.018 0.534z"></path>
<path fill="#fff" d="M23.573 17.502l0.547 0.112c0.038-0.185 0.071-0.375 0.096-0.564l-0.554-0.075c-0.024 0.177-0.054 0.354-0.090 0.527z"></path>
<path fill="#fff" d="M23.286 18.53l0.526 0.187c0.064-0.18 0.122-0.363 0.173-0.545l-0.538-0.15c-0.048 0.17-0.102 0.341-0.161 0.509z"></path>
<path fill="#fff" d="M22.86 19.509l0.496 0.257c0.087-0.168 0.17-0.342 0.246-0.517l-0.512-0.224c-0.071 0.163-0.148 0.326-0.23 0.483z"></path>
<path fill="#fff" d="M8.97 19.523l-0.495 0.259c0.088 0.168 0.183 0.335 0.281 0.497l0.478-0.291c-0.093-0.15-0.182-0.307-0.264-0.464z"></path>
<path fill="#fff" d="M10.631 22.422c0.148 0.12 0.302 0.237 0.456 0.346l0.321-0.457c-0.145-0.103-0.287-0.21-0.426-0.322l-0.351 0.434z"></path>
<path fill="#fff" d="M12.581 23.606c0.174 0.075 0.353 0.146 0.533 0.21l0.186-0.527c-0.168-0.060-0.335-0.125-0.497-0.196l-0.223 0.513z"></path>
<path fill="#fff" d="M11.565 23.080c0.163 0.099 0.331 0.193 0.499 0.279l0.257-0.497c-0.157-0.081-0.314-0.169-0.466-0.262l-0.29 0.479z"></path>
<path fill="#fff" d="M9.793 21.641c0.13 0.14 0.267 0.275 0.405 0.404l0.381-0.409c-0.129-0.12-0.257-0.247-0.378-0.377l-0.408 0.382z"></path>
<path fill="#fff" d="M9.526 20.433l-0.456 0.323c0.11 0.155 0.226 0.307 0.346 0.455l0.432-0.354c-0.112-0.137-0.22-0.279-0.322-0.424z"></path>
<path fill="#fff" d="M16.985 23.662l0.076 0.553c0.188-0.026 0.377-0.058 0.564-0.097l-0.113-0.547c-0.175 0.036-0.351 0.067-0.526 0.091z"></path>
<path fill="#fff" d="M14.78 24.218c0.187 0.025 0.378 0.044 0.569 0.056l0.037-0.559c-0.179-0.012-0.357-0.030-0.531-0.053l-0.075 0.556z"></path>
<path fill="#fff" d="M15.92 23.735v0.559c0.191 0 0.384-0.007 0.572-0.020l-0.038-0.559c-0.176 0.013-0.354 0.020-0.533 0.020z"></path>
<path fill="#fff" d="M13.66 23.988c0.184 0.051 0.371 0.096 0.556 0.134l0.112-0.547c-0.173-0.035-0.348-0.078-0.519-0.125l-0.149 0.538z"></path>
<path fill="#fff" d="M18.203 9.887l-0.161 2.733c-0.023 0.398 0.125 0.788 0.407 1.070l0.542 0.541 0.986-2.567 0.997 0.997v1.233c-0 0.222 0.088 0.435 0.246 0.591l0.484 0.485 0.593-0.988 0.142 0.142c0.211 0.218 0.522 0.305 0.815 0.229s0.522-0.306 0.599-0.599c0.077-0.293-0.011-0.605-0.229-0.815l-0.142-0.142 0.988-0.593-0.484-0.485c-0.157-0.158-0.37-0.246-0.593-0.246h-1.234l-0.995-0.997 2.568-0.988-0.543-0.542c-0.282-0.282-0.671-0.43-1.070-0.407l-2.733 0.161-0.899-0.899c-0.332-0.316-0.854-0.316-1.186 0-0.327 0.327-0.327 0.858 0 1.186l0.9 0.899zM18.78 13.223c-0.128-0.162-0.192-0.365-0.18-0.57l0.131-2.235 0.815 0.815-0.766 1.991zM21.594 14.067c-0.039-0.050-0.061-0.111-0.061-0.175v-0.674l0.357 0.357-0.296 0.491zM23.393 12.033c0.063 0 0.125 0.022 0.175 0.061l-0.492 0.297-0.357-0.356 0.674-0.002zM22.152 9.099c0.206-0.012 0.409 0.052 0.57 0.18l-1.992 0.766-0.815-0.815 2.236-0.132zM17.698 8.198c0.109-0.109 0.286-0.109 0.395 0l5.137 5.137c0.109 0.109 0.109 0.286 0 0.395-0.11 0.106-0.285 0.106-0.395 0l-5.136-5.137c-0.109-0.109-0.109-0.286 0-0.395z"></path>
</svg>
