<!-- Generated by IcoMoon.io -->
<svg version="1.1" xmlns="http://www.w3.org/2000/svg" width="32" height="32" viewBox="0 0 32 32">
<title>travel</title>
<path fill="none" stroke="#fff" stroke-linejoin="miter" stroke-linecap="butt" stroke-miterlimit="4" stroke-width="0.3765" d="M31.812 16c0 8.733-7.079 15.812-15.812 15.812s-15.812-7.079-15.812-15.812c0-8.733 7.079-15.812 15.812-15.812s15.812 7.079 15.812 15.812z"></path>
<path fill="#fff" d="M23.162 15.024h-4.54c0.206-0.472 0.293-1.005 0.271-1.53 0.559 0.031 1.071-0.381 1.071-0.969 0-0.203-0.063-0.392-0.17-0.548 0.175-0.116 0.291-0.315 0.291-0.541v-0.464c0-0.358-0.291-0.649-0.649-0.649h-0.543v-1.639c0-1.052-0.856-1.908-1.908-1.908h-2.685c-1.052 0-1.908 0.856-1.908 1.908v1.639h-0.543c-0.358 0-0.649 0.291-0.649 0.649v0.464c0 0.226 0.116 0.425 0.291 0.541-0.107 0.156-0.17 0.345-0.17 0.548 0 0.565 0.501 1.025 1.071 0.969-0.050 0.497 0.082 1.093 0.272 1.53h-4.541c-0.535 0-0.971 0.435-0.971 0.971v2.598c0 0.535 0.435 0.971 0.971 0.971h1.044c-0.024 0.096-0.042 0.193-0.055 0.292-0.127-0.004-0.253 0.030-0.364 0.101-0.178 0.114-0.284 0.308-0.284 0.517v0.81h-0.351c-0.239 0-0.449 0.169-0.5 0.403-0.088 0.4-0.128 0.81-0.12 1.219 0.007 0.339 0.047 0.678 0.12 1.010 0.051 0.234 0.261 0.403 0.5 0.403h0.351v0.265c0 0.146 0.118 0.265 0.265 0.265s0.265-0.119 0.265-0.265v-0.265h0.15c0.486 0 0.881-0.395 0.881-0.881v-1.272c0-0.486-0.395-0.881-0.881-0.881h-0.15v-0.81c0.004-0.070 0.067-0.11 0.144-0.078l2.783 1.266v2.922c0 0.146 0.118 0.265 0.265 0.265s0.265-0.119 0.265-0.265v-2.922l2.927-1.331v4.253c0 0.146 0.118 0.265 0.265 0.265s0.265-0.119 0.265-0.265v-4.253c0.065 0.032 2.857 1.298 2.927 1.331v2.922c0 0.146 0.119 0.265 0.265 0.265s0.265-0.119 0.265-0.265v-2.922l2.783-1.266c0.078-0.031 0.14 0.009 0.144 0.078v0.81h-0.15c-0.486 0-0.881 0.395-0.881 0.881v1.272c0 0.486 0.395 0.881 0.881 0.881h0.15v0.265c0 0.146 0.119 0.265 0.265 0.265s0.265-0.119 0.265-0.265v-0.265h0.351c0.239 0 0.449-0.169 0.5-0.403 0.073-0.331 0.113-0.671 0.12-1.010 0.008-0.409-0.032-0.819-0.12-1.219-0.051-0.233-0.261-0.403-0.5-0.403h-0.351v-0.81c0-0.209-0.106-0.402-0.284-0.517-0.11-0.071-0.237-0.105-0.364-0.101-0.012-0.098-0.030-0.196-0.055-0.292h1.044c0.535 0 0.971-0.435 0.971-0.971v-2.598c-0-0.535-0.435-0.971-0.971-0.971zM8.61 19.034h-0.486c-0.243 0-0.441-0.198-0.441-0.441v-2.598c0-0.243 0.198-0.441 0.441-0.441h0.486v3.481zM9.145 21.812c0.194 0 0.352 0.158 0.352 0.352v1.272c0 0.194-0.158 0.352-0.352 0.352h-1.017c-0.063-0.294-0.098-0.594-0.104-0.894-0.007-0.363 0.028-0.726 0.105-1.082l1.017-0zM23.157 21.812c0.077 0.355 0.112 0.719 0.105 1.082-0.006 0.3-0.041 0.6-0.105 0.894h-1.017c-0.194 0-0.352-0.158-0.352-0.352v-1.272c0-0.194 0.158-0.352 0.352-0.352l1.017 0zM21.087 15.554v2.582c-0.234-0.149-0.494-0.258-0.768-0.319l-2.6-0.571c-0.201-0.044-0.346-0.225-0.346-0.431v-0.339c0.204-0.128 0.395-0.28 0.569-0.454 0.145-0.145 0.274-0.302 0.388-0.468l2.758-0zM18.893 12.964v-0.88c0.272-0.041 0.542 0.155 0.542 0.44 0 0.28-0.267 0.483-0.542 0.44zM12.922 8.684c0-0.76 0.618-1.378 1.378-1.378h2.685c0.76 0 1.378 0.618 1.378 1.378v1.639h-5.442v-1.639zM12.392 12.964c-0.278 0.034-0.542-0.148-0.542-0.44 0-0.284 0.271-0.481 0.542-0.44v0.88zM11.849 11.555c-0.066 0-0.119-0.054-0.119-0.119v-0.464c0-0.066 0.054-0.119 0.119-0.119h7.587c0.066 0 0.119 0.054 0.119 0.119v0.464c0 0.066-0.054 0.119-0.119 0.119h-4.44c-0.146 0-0.265 0.118-0.265 0.265s0.118 0.265 0.265 0.265h3.367v1.639c0 0.73-0.287 1.414-0.797 1.924-0.176 0.176-0.373 0.325-0.584 0.445-0.41 0.233-0.854 0.352-1.34 0.352-1.5 0-2.721-1.221-2.721-2.721v-1.639h0.839c0.146 0 0.265-0.118 0.265-0.265s-0.119-0.265-0.265-0.265h-1.912zM17.001 17.342l-1.358 1.358-1.358-1.358c0.113-0.173 0.167-0.385 0.158-0.598 0.371 0.148 0.776 0.23 1.2 0.23 0.418 0 0.823-0.079 1.2-0.229-0.018 0.205 0.050 0.43 0.158 0.597zM10.198 15.554h2.76c0.252 0.368 0.577 0.682 0.955 0.92v0.341c0 0.206-0.146 0.387-0.347 0.431l-2.6 0.571c-0.274 0.060-0.534 0.169-0.768 0.319v-2.582h0zM9.371 19.034h-0.231v-3.481h0.529v3.041c-0.116 0.135-0.216 0.283-0.298 0.44zM12.186 21.199l-2.558-1.164c0.049-0.818 0.644-1.524 1.452-1.702l1.6-0.352 2.057 2.057-2.55 1.16zM19.099 21.199l-2.55-1.16 0.5-0.5c0.103-0.103 0.103-0.271 0-0.374s-0.271-0.103-0.374 0l-0.641 0.641c-0.25-0.105-0.532-0.105-0.782 0l-1.958-1.958 0.387-0.085c0.072-0.016 0.141-0.040 0.206-0.071l1.52 1.52c0.063 0.063 0.148 0.098 0.237 0.098s0.174-0.035 0.237-0.098l1.52-1.52c0.065 0.031 0.133 0.055 0.205 0.071l0.387 0.085-0.435 0.435c-0.103 0.103-0.103 0.271 0 0.374s0.271 0.103 0.374 0l0.675-0.675 1.599 0.351c0.808 0.178 1.403 0.884 1.452 1.702l-2.558 1.164zM22.146 19.034h-0.231c-0.082-0.157-0.182-0.305-0.298-0.44v-3.041h0.529v3.481h-0zM23.603 18.593c0 0.243-0.198 0.441-0.441 0.441h-0.486v-3.481h0.486c0.243 0 0.441 0.198 0.441 0.441v2.598zM17.083 13.529c0.146 0 0.265-0.118 0.265-0.265v-0.576c0-0.146-0.119-0.265-0.265-0.265s-0.265 0.118-0.265 0.265v0.576c0 0.146 0.119 0.265 0.265 0.265zM13.937 12.688v0.576c0 0.146 0.118 0.265 0.265 0.265s0.265-0.118 0.265-0.265v-0.576c0-0.146-0.118-0.265-0.265-0.265s-0.265 0.118-0.265 0.265zM14.939 15.184c0.147 0.081 0.385 0.177 0.688 0.18 0.305 0.003 0.568-0.098 0.719-0.18 0.128-0.070 0.175-0.231 0.105-0.359s-0.231-0.175-0.359-0.105c-0.098 0.054-0.257 0.117-0.459 0.115-0.193-0.002-0.345-0.064-0.439-0.115-0.128-0.070-0.289-0.023-0.359 0.105s-0.023 0.289 0.105 0.359z"></path>
</svg>
